{"accessors" : [{"bufferView" : 0, "byteOffset" : 0, "componentType" : 5125, "count" : 110256, "type" : "SCALAR", "max" : [107624], "min" : [0]}, {"bufferView" : 1, "byteOffset" : 0, "componentType" : 5126, "count" : 107625, "type" : "VEC3", "max" : [5.378568649291992, 4.941068649291992, -0.02704334259033203], "min" : [-4.831775665283203, -5.024198532104492, -13.239787101745605], "name" : "POSITION"}, {"bufferView" : 1, "byteOffset" : 12, "componentType" : 5126, "count" : 107625, "type" : "VEC3", "max" : [0.7661280035972595, 0.9962086081504822, 1.0000044107437134], "min" : [-0.9962010979652405, -0.7661023736000061, -1.0000044107437134], "name" : "NORMAL"}], "asset" : {"generator" : "Aspose.3D 23.4.0", "version" : "2.0"}, "buffers" : [{"uri" : "data:application/octet-stream;base64,", "byteLength" : 3087176}], "bufferViews" : [{"buffer" : 0, "byteOffset" : 0, "byteLength" : 441024, "target" : 34963}, {"buffer" : 0, "byteOffset" : 441028, "byteLength" : 2646144, "byteStride" : 24, "target" : 34962}], "meshes" : [{"primitives" : [{"attributes" : {"POSITION" : 1, "NORMAL" : 2}, "indices" : 0, "mode" : 4}]}], "nodes" : [{"matrix" : [0.009999999776482582, 0, 0, 0, 0, -1.3435885348189617E-09, 0.009999999434197101, 0, 0, -0.009999999434197101, -1.3435885348189617E-09, 0, 0, 0, 0, 1], "mesh" : 0, "name" : "DISPLAY_NALADOWY"}], "scene" : 0, "scenes" : [{"nodes" : [0]}]}