{"accessors" : [{"bufferView" : 0, "byteOffset" : 0, "componentType" : 5123, "count" : 108, "type" : "SCALAR", "max" : [101], "min" : [0]}, {"bufferView" : 1, "byteOffset" : 0, "componentType" : 5126, "count" : 102, "type" : "VEC3", "max" : [24.411598205566406, 3.3914270401000977, 1.3768960237503052], "min" : [-23.246477127075195, -1.853091835975647, 0.9831912517547607], "name" : "POSITION"}, {"bufferView" : 1, "byteOffset" : 12, "componentType" : 5126, "count" : 102, "type" : "VEC3", "max" : [1.0000044107437134, 1.0000044107437134, 1.0000044107437134], "min" : [-1.0000044107437134, -1.0000044107437134, -1.0000044107437134], "name" : "NORMAL"}, {"bufferView" : 1, "byteOffset" : 24, "componentType" : 5126, "count" : 102, "type" : "VEC2", "max" : [1.422538161277771, 0.8468316793441772], "min" : [0.12499988824129105, 0.15316569805145264], "name" : "TEXCOORD_0"}, {"bufferView" : 0, "byteOffset" : 216, "componentType" : 5123, "count" : 36, "type" : "SCALAR", "max" : [29], "min" : [0]}, {"bufferView" : 2, "byteOffset" : 0, "componentType" : 5126, "count" : 30, "type" : "VEC3", "max" : [8.65269947052002, 33.34447479248047, 1.810019512049621E-06], "min" : [-5.126834869384766, -33.56973648071289, -0.3937020003795624], "name" : "POSITION"}, {"bufferView" : 2, "byteOffset" : 12, "componentType" : 5126, "count" : 30, "type" : "VEC3", "max" : [1.0000044107437134, 1.0000044107437134, 1.0000044107437134], "min" : [-1.0000044107437134, -1.0000044107437134, -1.0000044107437134], "name" : "NORMAL"}, {"bufferView" : 2, "byteOffset" : 24, "componentType" : 5126, "count" : 30, "type" : "VEC2", "max" : [1.375, 0.6959131956100464], "min" : [0.125, 0.3040866255760193], "name" : "TEXCOORD_0"}, {"bufferView" : 0, "byteOffset" : 288, "componentType" : 5123, "count" : 60, "type" : "SCALAR", "max" : [52], "min" : [0]}, {"bufferView" : 3, "byteOffset" : 0, "componentType" : 5126, "count" : 53, "type" : "VEC3", "max" : [10.826775550842285, 33.34447479248047, 2.1642215415340615E-06], "min" : [-0.4269047677516937, -33.56973648071289, -0.39370161294937134], "name" : "POSITION"}, {"bufferView" : 3, "byteOffset" : 12, "componentType" : 5126, "count" : 53, "type" : "VEC3", "max" : [1.0000044107437134, 1.0000044107437134, 1.0000044107437134], "min" : [-1.0000044107437134, -1.0000044107437134, -1.0000044107437134], "name" : "NORMAL"}, {"bufferView" : 3, "byteOffset" : 24, "componentType" : 5126, "count" : 53, "type" : "VEC2", "max" : [0.9995005130767822, 1], "min" : [0, 0.0004994869232177734], "name" : "TEXCOORD_0"}, {"bufferView" : 0, "byteOffset" : 408, "componentType" : 5123, "count" : 36, "type" : "SCALAR", "max" : [29], "min" : [0]}, {"bufferView" : 4, "byteOffset" : 0, "componentType" : 5126, "count" : 30, "type" : "VEC3", "max" : [8.65269947052002, 33.34447479248047, 1.4675201782665681E-06], "min" : [-5.126834869384766, -33.56973648071289, -0.3937009871006012], "name" : "POSITION"}, {"bufferView" : 4, "byteOffset" : 12, "componentType" : 5126, "count" : 30, "type" : "VEC3", "max" : [1.0000044107437134, 1.0000044107437134, 1.0000044107437134], "min" : [-1.0000044107437134, -1.0000044107437134, -1.0000044107437134], "name" : "NORMAL"}, {"bufferView" : 4, "byteOffset" : 24, "componentType" : 5126, "count" : 30, "type" : "VEC2", "max" : [1.3749998807907104, 0.6959133148193359], "min" : [0.125, 0.3040866255760193], "name" : "TEXCOORD_0"}, {"bufferView" : 0, "byteOffset" : 480, "componentType" : 5123, "count" : 60, "type" : "SCALAR", "max" : [46], "min" : [0]}, {"bufferView" : 5, "byteOffset" : 0, "componentType" : 5126, "count" : 47, "type" : "VEC3", "max" : [10.826775550842285, 33.34447479248047, 2.273395921292831E-06], "min" : [-0.4269047975540161, -33.56973648071289, -0.39370185136795044], "name" : "POSITION"}, {"bufferView" : 5, "byteOffset" : 12, "componentType" : 5126, "count" : 47, "type" : "VEC3", "max" : [1.0000044107437134, 1.0000044107437134, 1.0000044107437134], "min" : [-1.0000044107437134, -1.0000044107437134, -1.0000044107437134], "name" : "NORMAL"}, {"bufferView" : 5, "byteOffset" : 24, "componentType" : 5126, "count" : 47, "type" : "VEC2", "max" : [100000, 1], "min" : [0, -100000], "name" : "TEXCOORD_0"}, {"bufferView" : 0, "byteOffset" : 600, "componentType" : 5123, "count" : 36, "type" : "SCALAR", "max" : [31], "min" : [0]}, {"bufferView" : 6, "byteOffset" : 0, "componentType" : 5126, "count" : 32, "type" : "VEC3", "max" : [10.443256378173828, 22.4042911529541, 13.89643383026123], "min" : [6.987168312072754, -21.41131019592285, 13.778319358825684], "name" : "POSITION"}, {"bufferView" : 6, "byteOffset" : 12, "componentType" : 5126, "count" : 32, "type" : "VEC3", "max" : [1.0000044107437134, 0.7472288608551025, 1.0000044107437134], "min" : [-1.0000044107437134, -0.7472488284111023, -1.0000044107437134], "name" : "NORMAL"}, {"bufferView" : 6, "byteOffset" : 24, "componentType" : 5126, "count" : 32, "type" : "VEC2", "max" : [1.125, 0.70652174949646], "min" : [0.125, 0.29348117113113403], "name" : "TEXCOORD_0"}, {"bufferView" : 0, "byteOffset" : 672, "componentType" : 5123, "count" : 36, "type" : "SCALAR", "max" : [35], "min" : [0]}, {"bufferView" : 7, "byteOffset" : 0, "componentType" : 5126, "count" : 36, "type" : "VEC3", "max" : [10.444595336914062, 21.461341857910156, 2.6176724077231484E-06], "min" : [7.001359939575195, -22.411163330078125, -0.11811148375272751], "name" : "POSITION"}, {"bufferView" : 7, "byteOffset" : 12, "componentType" : 5126, "count" : 36, "type" : "VEC3", "max" : [1.0000044107437134, 0.7459946870803833, 1.0000044107437134], "min" : [-1.0000044107437134, -0.7460122108459473, -1.0000044107437134], "name" : "NORMAL"}, {"bufferView" : 7, "byteOffset" : 24, "componentType" : 5126, "count" : 36, "type" : "VEC2", "max" : [1.125, 0.7065067291259766], "min" : [0.125, 0.2934918999671936], "name" : "TEXCOORD_0"}, {"bufferView" : 0, "byteOffset" : 744, "componentType" : 5123, "count" : 420, "type" : "SCALAR", "max" : [395], "min" : [0]}, {"bufferView" : 8, "byteOffset" : 0, "componentType" : 5126, "count" : 396, "type" : "VEC3", "max" : [22.459110260009766, 2.266751766204834, 32.23126220703125], "min" : [-25.99447250366211, -2.6385915279388428, 0.7379323840141296], "name" : "POSITION"}, {"bufferView" : 8, "byteOffset" : 12, "componentType" : 5126, "count" : 396, "type" : "VEC3", "max" : [1.0000044107437134, 1.0000044107437134, 1.0000044107437134], "min" : [-1.0000044107437134, -1.0000044107437134, -1.0000044107437134], "name" : "NORMAL"}, {"bufferView" : 8, "byteOffset" : 24, "componentType" : 5126, "count" : 396, "type" : "VEC2", "max" : [1.4438261985778809, 0.8131632804870605], "min" : [0.056368086487054825, 0.1124991774559021], "name" : "TEXCOORD_0"}, {"bufferView" : 0, "byteOffset" : 1584, "componentType" : 5123, "count" : 420, "type" : "SCALAR", "max" : [349], "min" : [0]}, {"bufferView" : 9, "byteOffset" : 0, "componentType" : 5126, "count" : 350, "type" : "VEC3", "max" : [22.82297134399414, 0.7689571380615234, 3.831687990896171E-06], "min" : [-24.860260009765625, -48.337337493896484, -0.0830211341381073], "name" : "POSITION"}, {"bufferView" : 9, "byteOffset" : 12, "componentType" : 5126, "count" : 350, "type" : "VEC3", "max" : [1.0000044107437134, 1.0000044107437134, 1.0000044107437134], "min" : [-1.0000044107437134, -1.0000044107437134, -1.0000044107437134], "name" : "NORMAL"}, {"bufferView" : 9, "byteOffset" : 24, "componentType" : 5126, "count" : 350, "type" : "VEC2", "max" : [1.083492636680603, 0.993388295173645], "min" : [0.006366060581058264, 0.23985916376113892], "name" : "TEXCOORD_0"}, {"bufferView" : 0, "byteOffset" : 2424, "componentType" : 5123, "count" : 336, "type" : "SCALAR", "max" : [279], "min" : [0]}, {"bufferView" : 10, "byteOffset" : 0, "componentType" : 5126, "count" : 280, "type" : "VEC3", "max" : [22.82312774658203, 36.76625061035156, 1.4966362016366475E-07], "min" : [-24.860103607177734, -1.8549652099609375, -0.15864017605781555], "name" : "POSITION"}, {"bufferView" : 10, "byteOffset" : 12, "componentType" : 5126, "count" : 280, "type" : "VEC3", "max" : [1.0000044107437134, 1.0000044107437134, 1.0000044107437134], "min" : [-1.0000044107437134, -1.0000044107437134, -1.0000044107437134], "name" : "NORMAL"}, {"bufferView" : 10, "byteOffset" : 24, "componentType" : 5126, "count" : 280, "type" : "VEC2", "max" : [0.9691724181175232, 0.9364852905273438], "min" : [0.04396124929189682, 0.06351345777511597], "name" : "TEXCOORD_0"}, {"bufferView" : 0, "byteOffset" : 3096, "componentType" : 5123, "count" : 144, "type" : "SCALAR", "max" : [143], "min" : [0]}, {"bufferView" : 11, "byteOffset" : 0, "componentType" : 5126, "count" : 144, "type" : "VEC3", "max" : [22.658126831054688, 0.3543354868888855, 0.003705141134560108], "min" : [-25.000003814697266, -35.835533142089844, -13.58267593383789], "name" : "POSITION"}, {"bufferView" : 11, "byteOffset" : 12, "componentType" : 5126, "count" : 144, "type" : "VEC3", "max" : [1.0000044107437134, 1.0000044107437134, 1.0000044107437134], "min" : [-1.0000044107437134, -1.0000044107437134, -1.0000044107437134], "name" : "NORMAL"}, {"bufferView" : 11, "byteOffset" : 24, "componentType" : 5126, "count" : 144, "type" : "VEC2", "max" : [0.9571298360824585, 0.7441562414169312], "min" : [0.049078211188316345, 0.2558436393737793], "name" : "TEXCOORD_0"}, {"bufferView" : 0, "byteOffset" : 3384, "componentType" : 5123, "count" : 36, "type" : "SCALAR", "max" : [29], "min" : [0]}, {"bufferView" : 12, "byteOffset" : 0, "componentType" : 5126, "count" : 30, "type" : "VEC3", "max" : [23.447086334228516, 0.059055328369140625, -0], "min" : [-25.794498443603516, -0.059055328369140625, -66.9136734008789], "name" : "POSITION"}, {"bufferView" : 12, "byteOffset" : 12, "componentType" : 5126, "count" : 30, "type" : "VEC3", "max" : [1.0000044107437134, 1.0000044107437134, 1.0000044107437134], "min" : [-1.0000044107437134, -1.0000044107437134, -1.0000044107437134], "name" : "NORMAL"}, {"bufferView" : 12, "byteOffset" : 24, "componentType" : 5126, "count" : 30, "type" : "VEC2", "max" : [1.125, 0.6959131956100464], "min" : [0.125, 0.30408668518066406], "name" : "TEXCOORD_0"}], "asset" : {"generator" : "Aspose.3D 23.4.0", "version" : "2.0"}, "buffers" : [{"uri" : "data:application/octet-stream;base64,", "byteLength" : 58804}], "bufferViews" : [{"buffer" : 0, "byteOffset" : 0, "byteLength" : 3456, "target" : 34963}, {"buffer" : 0, "byteOffset" : 3460, "byteLength" : 3456, "byteStride" : 32, "target" : 34962}, {"buffer" : 0, "byteOffset" : 6920, "byteLength" : 1152, "byteStride" : 32, "target" : 34962}, {"buffer" : 0, "byteOffset" : 8076, "byteLength" : 1920, "byteStride" : 32, "target" : 34962}, {"buffer" : 0, "byteOffset" : 10000, "byteLength" : 1152, "byteStride" : 32, "target" : 34962}, {"buffer" : 0, "byteOffset" : 11156, "byteLength" : 1920, "byteStride" : 32, "target" : 34962}, {"buffer" : 0, "byteOffset" : 13080, "byteLength" : 1152, "byteStride" : 32, "target" : 34962}, {"buffer" : 0, "byteOffset" : 14236, "byteLength" : 1152, "byteStride" : 32, "target" : 34962}, {"buffer" : 0, "byteOffset" : 15392, "byteLength" : 13440, "byteStride" : 32, "target" : 34962}, {"buffer" : 0, "byteOffset" : 28836, "byteLength" : 13440, "byteStride" : 32, "target" : 34962}, {"buffer" : 0, "byteOffset" : 42280, "byteLength" : 10752, "byteStride" : 32, "target" : 34962}, {"buffer" : 0, "byteOffset" : 53036, "byteLength" : 4608, "byteStride" : 32, "target" : 34962}, {"buffer" : 0, "byteOffset" : 57648, "byteLength" : 1152, "byteStride" : 32, "target" : 34962}], "materials" : [{"name" : "1.001", "pbrMetallicRoughness" : {"baseColorFactor" : [0.4000000059604645, 0.4000000059604645, 0.4000000059604645, 1], "metallicFactor" : 0, "roughnessFactor" : 0}, "emissiveFactor" : [0, 0, 0], "alphaMode" : "OPAQUE", "doubleSided" : true}, {"name" : "1.001", "pbrMetallicRoughness" : {"baseColorFactor" : [0.4000000059604645, 0.4000000059604645, 0.4000000059604645, 1], "metallicFactor" : 0, "roughnessFactor" : 0}, "emissiveFactor" : [0, 0, 0], "alphaMode" : "OPAQUE", "doubleSided" : true}, {"name" : "1.001", "pbrMetallicRoughness" : {"baseColorFactor" : [0.4000000059604645, 0.4000000059604645, 0.4000000059604645, 1], "metallicFactor" : 0, "roughnessFactor" : 0}, "emissiveFactor" : [0, 0, 0], "alphaMode" : "OPAQUE", "doubleSided" : true}, {"name" : "1.001", "pbrMetallicRoughness" : {"baseColorFactor" : [0.4000000059604645, 0.4000000059604645, 0.4000000059604645, 1], "metallicFactor" : 0, "roughnessFactor" : 0}, "emissiveFactor" : [0, 0, 0], "alphaMode" : "OPAQUE", "doubleSided" : true}, {"name" : "1.001", "pbrMetallicRoughness" : {"baseColorFactor" : [0.4000000059604645, 0.4000000059604645, 0.4000000059604645, 1], "metallicFactor" : 0, "roughnessFactor" : 0}, "emissiveFactor" : [0, 0, 0], "alphaMode" : "OPAQUE", "doubleSided" : true}, {"name" : "1.001", "pbrMetallicRoughness" : {"baseColorFactor" : [0.4000000059604645, 0.4000000059604645, 0.4000000059604645, 1], "metallicFactor" : 0, "roughnessFactor" : 0}, "emissiveFactor" : [0, 0, 0], "alphaMode" : "OPAQUE", "doubleSided" : true}, {"name" : "1.001", "pbrMetallicRoughness" : {"baseColorFactor" : [0.4000000059604645, 0.4000000059604645, 0.4000000059604645, 1], "metallicFactor" : 0, "roughnessFactor" : 0}, "emissiveFactor" : [0, 0, 0], "alphaMode" : "OPAQUE", "doubleSided" : true}, {"name" : "1.001", "pbrMetallicRoughness" : {"baseColorFactor" : [0.4000000059604645, 0.4000000059604645, 0.4000000059604645, 1], "metallicFactor" : 0, "roughnessFactor" : 0}, "emissiveFactor" : [0, 0, 0], "alphaMode" : "OPAQUE", "doubleSided" : true}, {"name" : "1.001", "pbrMetallicRoughness" : {"baseColorFactor" : [0.4000000059604645, 0.4000000059604645, 0.4000000059604645, 1], "metallicFactor" : 0, "roughnessFactor" : 0}, "emissiveFactor" : [0, 0, 0], "alphaMode" : "OPAQUE", "doubleSided" : true}, {"name" : "1.001", "pbrMetallicRoughness" : {"baseColorFactor" : [0.4000000059604645, 0.4000000059604645, 0.4000000059604645, 1], "metallicFactor" : 0, "roughnessFactor" : 0}, "emissiveFactor" : [0, 0, 0], "alphaMode" : "OPAQUE", "doubleSided" : true}, {"name" : "1.001", "pbrMetallicRoughness" : {"baseColorFactor" : [0.4000000059604645, 0.4000000059604645, 0.4000000059604645, 1], "metallicFactor" : 0, "roughnessFactor" : 0}, "emissiveFactor" : [0, 0, 0], "alphaMode" : "OPAQUE", "doubleSided" : true}, {"name" : "1.001", "pbrMetallicRoughness" : {"baseColorFactor" : [0.4000000059604645, 0.4000000059604645, 0.4000000059604645, 1], "metallicFactor" : 0, "roughnessFactor" : 0}, "emissiveFactor" : [0, 0, 0], "alphaMode" : "OPAQUE", "doubleSided" : true}], "meshes" : [{"primitives" : [{"attributes" : {"POSITION" : 1, "NORMAL" : 2, "TEXCOORD_0" : 3}, "indices" : 0, "material" : 0, "mode" : 4}]}, {"primitives" : [{"attributes" : {"POSITION" : 5, "NORMAL" : 6, "TEXCOORD_0" : 7}, "indices" : 4, "material" : 1, "mode" : 4}]}, {"primitives" : [{"attributes" : {"POSITION" : 9, "NORMAL" : 10, "TEXCOORD_0" : 11}, "indices" : 8, "material" : 2, "mode" : 4}]}, {"primitives" : [{"attributes" : {"POSITION" : 13, "NORMAL" : 14, "TEXCOORD_0" : 15}, "indices" : 12, "material" : 3, "mode" : 4}]}, {"primitives" : [{"attributes" : {"POSITION" : 17, "NORMAL" : 18, "TEXCOORD_0" : 19}, "indices" : 16, "material" : 4, "mode" : 4}]}, {"primitives" : [{"attributes" : {"POSITION" : 21, "NORMAL" : 22, "TEXCOORD_0" : 23}, "indices" : 20, "material" : 5, "mode" : 4}]}, {"primitives" : [{"attributes" : {"POSITION" : 25, "NORMAL" : 26, "TEXCOORD_0" : 27}, "indices" : 24, "material" : 6, "mode" : 4}]}, {"primitives" : [{"attributes" : {"POSITION" : 29, "NORMAL" : 30, "TEXCOORD_0" : 31}, "indices" : 28, "material" : 7, "mode" : 4}]}, {"primitives" : [{"attributes" : {"POSITION" : 33, "NORMAL" : 34, "TEXCOORD_0" : 35}, "indices" : 32, "material" : 8, "mode" : 4}]}, {"primitives" : [{"attributes" : {"POSITION" : 37, "NORMAL" : 38, "TEXCOORD_0" : 39}, "indices" : 36, "material" : 9, "mode" : 4}]}, {"primitives" : [{"attributes" : {"POSITION" : 41, "NORMAL" : 42, "TEXCOORD_0" : 43}, "indices" : 40, "material" : 10, "mode" : 4}]}, {"primitives" : [{"attributes" : {"POSITION" : 45, "NORMAL" : 46, "TEXCOORD_0" : 47}, "indices" : 44, "material" : 11, "mode" : 4}]}], "nodes" : [{"matrix" : [-0.9999999315429307, 1.6961385903533442E-08, 1.6961383044057785E-08, 0, -1.6961385903533442E-08, -1.3435885648505064E-07, -0.9999999657714511, 0, -1.6961383044057785E-08, -0.9999999657714511, 2.028159258316009E-07, 0, 0.5911164283752441, -0.9235786199569702, -30.056930541992188, 1], "mesh" : 0, "name" : "Line027"}, {"matrix" : [-1.1920928244535389E-07, -1, -7.105427357601002E-15, 0, -1.1920928955078125E-07, 1.4210854715202004E-14, 1, 0, 0.9999999999999929, -1.1920928955078125E-07, 1.192092966562086E-07, 0, 24.228389739990234, -7.034662246704102, 0.1126214861869812, 1], "mesh" : 1, "name" : "Line028"}, {"matrix" : [-1.1920928244535389E-07, -1, -7.105427357601002E-15, 0, -1.1920928955078125E-07, 1.4210854715202004E-14, 1, 0, 0.9999999999999929, -1.1920928955078125E-07, 1.192092966562086E-07, 0, 24.622081756591797, -4.86059045791626, 0.11262112855911255, 1], "mesh" : 2, "name" : "Line029"}, {"matrix" : [1.7881391833896032E-07, -1.0000000894069672, -8.940693518866283E-08, 0, -2.682209014892578E-07, -1.7881401426222965E-07, 1.0000000894069672, 0, -1.0000000894069352, -2.682209014892578E-07, -3.5762793260118997E-07, 0, -24.228370666503906, -7.034662246704102, 0.1126214861869812, 1], "mesh" : 3, "name" : "Line030"}, {"matrix" : [1.7881391833896032E-07, -1.0000000894069672, -8.940693518866283E-08, 0, -2.682209014892578E-07, -1.7881401426222965E-07, 1.0000000894069672, 0, -1.0000000894069352, -2.682209014892578E-07, -3.5762793260118997E-07, 0, -24.622068405151367, -4.86059045791626, 0.11262112855911255, 1], "mesh" : 4, "name" : "Line031"}, {"matrix" : [-1.000000268717713, -5.086238944486117E-07, 5.086238944486117E-07, 0, 5.086238944486117E-07, -1.3435885648505064E-07, 1.0000001343588565, 0, -5.086238944486117E-07, 1.0000001343588565, -1.3435885648505064E-07, 0, -13.782125473022461, -15.687352180480957, 0.11262289434671402, 1], "mesh" : 5, "name" : "Line032"}, {"matrix" : [1.000000268717713, 7.152559137943697E-07, 7.152559137943697E-07, 0, -7.152559137943697E-07, 1.3435885648505064E-07, 1.0000001343588565, 0, -7.152559137943697E-07, 1.0000001343588565, 1.3435885648505064E-07, 0, 13.782133102416992, -1.7909257411956787, 0.11262062937021255, 1], "mesh" : 6, "name" : "Line033"}, {"matrix" : [1, 0, 0, 0, 0, -1.3435885648505064E-07, 0.9999999657714511, 0, 0, -0.9999999657714511, -1.3435885648505064E-07, 0, 1.7679238319396973, 16.54360008239746, 31.190353393554688, 1], "mesh" : 7, "name" : "Line034"}, {"matrix" : [1, 0, 0, 0, 0, -1.3435885648505064E-07, 0.9999999657714511, 0, 0, -0.9999999657714511, -1.3435885648505064E-07, 0, 1.0217804908752441, -1.9479080438613892, 18.147998809814453, 1], "mesh" : 8, "name" : "Line035"}, {"matrix" : [1, 0, 0, 0, 0, -1.3435885648505064E-07, 0.9999999657714511, 0, 0, -0.9999999657714511, -1.3435885648505064E-07, 0, 1.0217804908752441, -2.10672926902771, -17.322498321533203, 1], "mesh" : 9, "name" : "Line036"}, {"matrix" : [1, 0, 0, 0, 0, -1.3435885648505064E-07, 0.9999999657714511, 0, 0, -0.9999999657714511, -1.3435885648505064E-07, 0, 1.1795225143432617, -15.687352180480957, 18.158676147460938, 1], "mesh" : 10, "name" : "Rectangle0"}, {"matrix" : [1, 0, 0, 0, 0, 1, 0, 0, 0, 0, 1, 0, 1.172426700592041, -15.746609687805176, 33.45709991455078, 1], "mesh" : 11, "name" : "Rectangle1"}, {"children" : [0, 1, 2, 3, 4, 5, 6, 7, 8, 9, 10, 11], "matrix" : [0.009999999776482582, 0, 0, 0, 0, -1.3435885348189617E-09, 0.009999999434197101, 0, 0, -0.009999999434197101, -1.3435885348189617E-09, 0, -0.05834415182471275, 0.3345710337162018, 0.05935538560152054, 1], "name" : "KONCWKA_R"}], "scene" : 0, "scenes" : [{"nodes" : [12]}]}