{"accessors" : [{"bufferView" : 0, "byteOffset" : 0, "componentType" : 5123, "count" : 684, "type" : "SCALAR", "max" : [627], "min" : [0]}, {"bufferView" : 1, "byteOffset" : 0, "componentType" : 5126, "count" : 628, "type" : "VEC3", "max" : [1.9895726442337036, 0.7882500290870667, 2.3821840500204416E-07], "min" : [-1.9295830726623535, -0.4597015678882599, -7.874016284942627], "name" : "POSITION"}, {"bufferView" : 1, "byteOffset" : 12, "componentType" : 5126, "count" : 628, "type" : "VEC3", "max" : [1.0000044107437134, 1.0000044107437134, 1.0000044107437134], "min" : [-1.0000044107437134, -1.0000044107437134, -1.0000044107437134], "name" : "NORMAL"}, {"bufferView" : 1, "byteOffset" : 24, "componentType" : 5126, "count" : 628, "type" : "VEC2", "max" : [0.9995005130767822, 0.9995005130767822], "min" : [0.0004994869232177734, 0.0004994869232177734], "name" : "TEXCOORD_0"}, {"bufferView" : 0, "byteOffset" : 1368, "componentType" : 5123, "count" : 684, "type" : "SCALAR", "max" : [627], "min" : [0]}, {"bufferView" : 2, "byteOffset" : 0, "componentType" : 5126, "count" : 628, "type" : "VEC3", "max" : [1.9895726442337036, 0.7882500290870667, 4.629971499525709E-07], "min" : [-1.9295830726623535, -0.4597015678882599, -7.874016761779785], "name" : "POSITION"}, {"bufferView" : 2, "byteOffset" : 12, "componentType" : 5126, "count" : 628, "type" : "VEC3", "max" : [1.0000044107437134, 1.0000044107437134, 1.0000044107437134], "min" : [-1.0000044107437134, -1.0000044107437134, -1.0000044107437134], "name" : "NORMAL"}, {"bufferView" : 2, "byteOffset" : 24, "componentType" : 5126, "count" : 628, "type" : "VEC2", "max" : [0.9995005130767822, 0.9995005130767822], "min" : [0.0004994869232177734, 0.0004994869232177734], "name" : "TEXCOORD_0"}, {"bufferView" : 0, "byteOffset" : 2736, "componentType" : 5123, "count" : 684, "type" : "SCALAR", "max" : [627], "min" : [0]}, {"bufferView" : 3, "byteOffset" : 0, "componentType" : 5126, "count" : 628, "type" : "VEC3", "max" : [1.9895726442337036, 0.7882500290870667, 9.046489708453009E-07], "min" : [-1.9295830726623535, -0.4597015678882599, -7.874016761779785], "name" : "POSITION"}, {"bufferView" : 3, "byteOffset" : 12, "componentType" : 5126, "count" : 628, "type" : "VEC3", "max" : [1.0000044107437134, 1.0000044107437134, 1.0000044107437134], "min" : [-1.0000044107437134, -1.0000044107437134, -1.0000044107437134], "name" : "NORMAL"}, {"bufferView" : 3, "byteOffset" : 24, "componentType" : 5126, "count" : 628, "type" : "VEC2", "max" : [0.9995005130767822, 0.9995005130767822], "min" : [0.0004994869232177734, 0.0004994869232177734], "name" : "TEXCOORD_0"}, {"bufferView" : 0, "byteOffset" : 4104, "componentType" : 5123, "count" : 684, "type" : "SCALAR", "max" : [627], "min" : [0]}, {"bufferView" : 4, "byteOffset" : 0, "componentType" : 5126, "count" : 628, "type" : "VEC3", "max" : [1.9895726442337036, 0.7882500290870667, 1.750452952364867E-06], "min" : [-1.9295830726623535, -0.4597015678882599, -7.874017715454102], "name" : "POSITION"}, {"bufferView" : 4, "byteOffset" : 12, "componentType" : 5126, "count" : 628, "type" : "VEC3", "max" : [1.0000044107437134, 1.0000044107437134, 1.0000044107437134], "min" : [-1.0000044107437134, -1.0000044107437134, -1.0000044107437134], "name" : "NORMAL"}, {"bufferView" : 4, "byteOffset" : 24, "componentType" : 5126, "count" : 628, "type" : "VEC2", "max" : [0.9995005130767822, 0.9995005130767822], "min" : [0.0004994869232177734, 0.0004994869232177734], "name" : "TEXCOORD_0"}, {"bufferView" : 0, "byteOffset" : 5472, "componentType" : 5123, "count" : 684, "type" : "SCALAR", "max" : [627], "min" : [0]}, {"bufferView" : 5, "byteOffset" : 0, "componentType" : 5126, "count" : 628, "type" : "VEC3", "max" : [1.9895726442337036, 0.7882500290870667, 1.750452952364867E-06], "min" : [-1.9295830726623535, -0.4597015678882599, -7.874017715454102], "name" : "POSITION"}, {"bufferView" : 5, "byteOffset" : 12, "componentType" : 5126, "count" : 628, "type" : "VEC3", "max" : [1.0000044107437134, 1.0000044107437134, 1.0000044107437134], "min" : [-1.0000044107437134, -1.0000044107437134, -1.0000044107437134], "name" : "NORMAL"}, {"bufferView" : 5, "byteOffset" : 24, "componentType" : 5126, "count" : 628, "type" : "VEC2", "max" : [0.9995005130767822, 0.9995005130767822], "min" : [0.0004994869232177734, 0.0004994869232177734], "name" : "TEXCOORD_0"}, {"bufferView" : 0, "byteOffset" : 6840, "componentType" : 5123, "count" : 684, "type" : "SCALAR", "max" : [627], "min" : [0]}, {"bufferView" : 6, "byteOffset" : 0, "componentType" : 5126, "count" : 628, "type" : "VEC3", "max" : [1.9895726442337036, 0.7882500290870667, 4.629971499525709E-07], "min" : [-1.9295830726623535, -0.4597015678882599, -7.874016761779785], "name" : "POSITION"}, {"bufferView" : 6, "byteOffset" : 12, "componentType" : 5126, "count" : 628, "type" : "VEC3", "max" : [1.0000044107437134, 1.0000044107437134, 1.0000044107437134], "min" : [-1.0000044107437134, -1.0000044107437134, -1.0000044107437134], "name" : "NORMAL"}, {"bufferView" : 6, "byteOffset" : 24, "componentType" : 5126, "count" : 628, "type" : "VEC2", "max" : [0.9995005130767822, 0.9995005130767822], "min" : [0.0004994869232177734, 0.0004994869232177734], "name" : "TEXCOORD_0"}, {"bufferView" : 0, "byteOffset" : 8208, "componentType" : 5123, "count" : 684, "type" : "SCALAR", "max" : [627], "min" : [0]}, {"bufferView" : 7, "byteOffset" : 0, "componentType" : 5126, "count" : 628, "type" : "VEC3", "max" : [1.9895726442337036, 0.7882500290870667, 9.046489708453009E-07], "min" : [-1.9295830726623535, -0.4597015678882599, -7.874016761779785], "name" : "POSITION"}, {"bufferView" : 7, "byteOffset" : 12, "componentType" : 5126, "count" : 628, "type" : "VEC3", "max" : [1.0000044107437134, 1.0000044107437134, 1.0000044107437134], "min" : [-1.0000044107437134, -1.0000044107437134, -1.0000044107437134], "name" : "NORMAL"}, {"bufferView" : 7, "byteOffset" : 24, "componentType" : 5126, "count" : 628, "type" : "VEC2", "max" : [0.9995005130767822, 0.9995005130767822], "min" : [0.0004994869232177734, 0.0004994869232177734], "name" : "TEXCOORD_0"}, {"bufferView" : 0, "byteOffset" : 9576, "componentType" : 5123, "count" : 684, "type" : "SCALAR", "max" : [627], "min" : [0]}, {"bufferView" : 8, "byteOffset" : 0, "componentType" : 5126, "count" : 628, "type" : "VEC3", "max" : [1.9895726442337036, 0.7882500290870667, 1.7504530660517048E-06], "min" : [-1.9295830726623535, -0.4597015678882599, -7.874017715454102], "name" : "POSITION"}, {"bufferView" : 8, "byteOffset" : 12, "componentType" : 5126, "count" : 628, "type" : "VEC3", "max" : [1.0000044107437134, 1.0000044107437134, 1.0000044107437134], "min" : [-1.0000044107437134, -1.0000044107437134, -1.0000044107437134], "name" : "NORMAL"}, {"bufferView" : 8, "byteOffset" : 24, "componentType" : 5126, "count" : 628, "type" : "VEC2", "max" : [0.9995005130767822, 0.9995005130767822], "min" : [0.0004994869232177734, 0.0004994869232177734], "name" : "TEXCOORD_0"}, {"bufferView" : 0, "byteOffset" : 10944, "componentType" : 5123, "count" : 684, "type" : "SCALAR", "max" : [627], "min" : [0]}, {"bufferView" : 9, "byteOffset" : 0, "componentType" : 5126, "count" : 628, "type" : "VEC3", "max" : [1.9895726442337036, 0.7882500290870667, 1.7504530660517048E-06], "min" : [-1.9295830726623535, -0.4597015678882599, -7.874017715454102], "name" : "POSITION"}, {"bufferView" : 9, "byteOffset" : 12, "componentType" : 5126, "count" : 628, "type" : "VEC3", "max" : [1.0000044107437134, 1.0000044107437134, 1.0000044107437134], "min" : [-1.0000044107437134, -1.0000044107437134, -1.0000044107437134], "name" : "NORMAL"}, {"bufferView" : 9, "byteOffset" : 24, "componentType" : 5126, "count" : 628, "type" : "VEC2", "max" : [0.9995005130767822, 0.9995005130767822], "min" : [0.0004994869232177734, 0.0004994869232177734], "name" : "TEXCOORD_0"}, {"bufferView" : 0, "byteOffset" : 12312, "componentType" : 5123, "count" : 684, "type" : "SCALAR", "max" : [627], "min" : [0]}, {"bufferView" : 10, "byteOffset" : 0, "componentType" : 5126, "count" : 628, "type" : "VEC3", "max" : [1.9895726442337036, 0.7882500290870667, 2.3821851868888189E-07], "min" : [-1.9295830726623535, -0.4597015678882599, -7.874016284942627], "name" : "POSITION"}, {"bufferView" : 10, "byteOffset" : 12, "componentType" : 5126, "count" : 628, "type" : "VEC3", "max" : [1.0000044107437134, 1.0000044107437134, 1.0000044107437134], "min" : [-1.0000044107437134, -1.0000044107437134, -1.0000044107437134], "name" : "NORMAL"}, {"bufferView" : 10, "byteOffset" : 24, "componentType" : 5126, "count" : 628, "type" : "VEC2", "max" : [0.9995005130767822, 0.9995005130767822], "min" : [0.0004994869232177734, 0.0004994869232177734], "name" : "TEXCOORD_0"}, {"bufferView" : 0, "byteOffset" : 13680, "componentType" : 5123, "count" : 684, "type" : "SCALAR", "max" : [627], "min" : [0]}, {"bufferView" : 11, "byteOffset" : 0, "componentType" : 5126, "count" : 628, "type" : "VEC3", "max" : [1.9895726442337036, 0.7882500290870667, 4.629971499525709E-07], "min" : [-1.9295830726623535, -0.4597015976905823, -7.874016761779785], "name" : "POSITION"}, {"bufferView" : 11, "byteOffset" : 12, "componentType" : 5126, "count" : 628, "type" : "VEC3", "max" : [1.0000044107437134, 1.0000044107437134, 1.0000044107437134], "min" : [-1.0000044107437134, -1.0000044107437134, -1.0000044107437134], "name" : "NORMAL"}, {"bufferView" : 11, "byteOffset" : 24, "componentType" : 5126, "count" : 628, "type" : "VEC2", "max" : [0.9995005130767822, 0.9995005130767822], "min" : [0.0004994869232177734, 0.0004994869232177734], "name" : "TEXCOORD_0"}, {"bufferView" : 0, "byteOffset" : 15048, "componentType" : 5123, "count" : 684, "type" : "SCALAR", "max" : [627], "min" : [0]}, {"bufferView" : 12, "byteOffset" : 0, "componentType" : 5126, "count" : 628, "type" : "VEC3", "max" : [1.9895726442337036, 0.7882500290870667, 9.0464851609795E-07], "min" : [-1.9295830726623535, -0.4597015976905823, -7.874016761779785], "name" : "POSITION"}, {"bufferView" : 12, "byteOffset" : 12, "componentType" : 5126, "count" : 628, "type" : "VEC3", "max" : [1.0000044107437134, 1.0000044107437134, 1.0000044107437134], "min" : [-1.0000044107437134, -1.0000044107437134, -1.0000044107437134], "name" : "NORMAL"}, {"bufferView" : 12, "byteOffset" : 24, "componentType" : 5126, "count" : 628, "type" : "VEC2", "max" : [0.9995005130767822, 0.9995005130767822], "min" : [0.0004994869232177734, 0.0004994869232177734], "name" : "TEXCOORD_0"}, {"bufferView" : 0, "byteOffset" : 16416, "componentType" : 5123, "count" : 684, "type" : "SCALAR", "max" : [627], "min" : [0]}, {"bufferView" : 13, "byteOffset" : 0, "componentType" : 5126, "count" : 628, "type" : "VEC3", "max" : [1.9895726442337036, 0.7882500290870667, 1.750452952364867E-06], "min" : [-1.9295830726623535, -0.4597015976905823, -7.874017715454102], "name" : "POSITION"}, {"bufferView" : 13, "byteOffset" : 12, "componentType" : 5126, "count" : 628, "type" : "VEC3", "max" : [1.0000044107437134, 1.0000044107437134, 1.0000044107437134], "min" : [-1.0000044107437134, -1.0000044107437134, -1.0000044107437134], "name" : "NORMAL"}, {"bufferView" : 13, "byteOffset" : 24, "componentType" : 5126, "count" : 628, "type" : "VEC2", "max" : [0.9995005130767822, 0.9995005130767822], "min" : [0.0004994869232177734, 0.0004994869232177734], "name" : "TEXCOORD_0"}, {"bufferView" : 0, "byteOffset" : 17784, "componentType" : 5123, "count" : 684, "type" : "SCALAR", "max" : [627], "min" : [0]}, {"bufferView" : 14, "byteOffset" : 0, "componentType" : 5126, "count" : 628, "type" : "VEC3", "max" : [1.9895726442337036, 0.7882500290870667, 1.750452952364867E-06], "min" : [-1.9295830726623535, -0.4597015976905823, -7.874017715454102], "name" : "POSITION"}, {"bufferView" : 14, "byteOffset" : 12, "componentType" : 5126, "count" : 628, "type" : "VEC3", "max" : [1.0000044107437134, 1.0000044107437134, 1.0000044107437134], "min" : [-1.0000044107437134, -1.0000044107437134, -1.0000044107437134], "name" : "NORMAL"}, {"bufferView" : 14, "byteOffset" : 24, "componentType" : 5126, "count" : 628, "type" : "VEC2", "max" : [0.9995005130767822, 0.9995005130767822], "min" : [0.0004994869232177734, 0.0004994869232177734], "name" : "TEXCOORD_0"}, {"bufferView" : 0, "byteOffset" : 19152, "componentType" : 5123, "count" : 684, "type" : "SCALAR", "max" : [627], "min" : [0]}, {"bufferView" : 15, "byteOffset" : 0, "componentType" : 5126, "count" : 628, "type" : "VEC3", "max" : [1.9895726442337036, 0.7882500290870667, 2.3821840500204416E-07], "min" : [-1.9295830726623535, -0.4597015976905823, -7.874016284942627], "name" : "POSITION"}, {"bufferView" : 15, "byteOffset" : 12, "componentType" : 5126, "count" : 628, "type" : "VEC3", "max" : [1.0000044107437134, 1.0000044107437134, 1.0000044107437134], "min" : [-1.0000044107437134, -1.0000044107437134, -1.0000044107437134], "name" : "NORMAL"}, {"bufferView" : 15, "byteOffset" : 24, "componentType" : 5126, "count" : 628, "type" : "VEC2", "max" : [0.9995005130767822, 0.9995005130767822], "min" : [0.0004994869232177734, 0.0004994869232177734], "name" : "TEXCOORD_0"}, {"bufferView" : 0, "byteOffset" : 20520, "componentType" : 5123, "count" : 1572, "type" : "SCALAR", "max" : [1324], "min" : [0]}, {"bufferView" : 16, "byteOffset" : 0, "componentType" : 5126, "count" : 1325, "type" : "VEC3", "max" : [6.0015363693237305, 25.97455596923828, 3.485624802124221E-06], "min" : [-3.3425064086914062, -33.71895980834961, -0.21653831005096436], "name" : "POSITION"}, {"bufferView" : 16, "byteOffset" : 12, "componentType" : 5126, "count" : 1325, "type" : "VEC3", "max" : [0.9997062087059021, 0.9992725849151611, 1.0000044107437134], "min" : [-0.9992720484733582, -0.9992897510528564, -1.0000044107437134], "name" : "NORMAL"}, {"bufferView" : 16, "byteOffset" : 24, "componentType" : 5126, "count" : 1325, "type" : "VEC2", "max" : [0.9995005130767822, 1], "min" : [0, 0.0004994869232177734], "name" : "TEXCOORD_0"}], "asset" : {"generator" : "Aspose.3D 23.4.0", "version" : "2.0"}, "buffers" : [{"uri" : "data:application/octet-stream;base64,", "byteLength" : 402356}], "bufferViews" : [{"buffer" : 0, "byteOffset" : 0, "byteLength" : 23664, "target" : 34963}, {"buffer" : 0, "byteOffset" : 23668, "byteLength" : 21888, "byteStride" : 32, "target" : 34962}, {"buffer" : 0, "byteOffset" : 45560, "byteLength" : 21888, "byteStride" : 32, "target" : 34962}, {"buffer" : 0, "byteOffset" : 67452, "byteLength" : 21888, "byteStride" : 32, "target" : 34962}, {"buffer" : 0, "byteOffset" : 89344, "byteLength" : 21888, "byteStride" : 32, "target" : 34962}, {"buffer" : 0, "byteOffset" : 111236, "byteLength" : 21888, "byteStride" : 32, "target" : 34962}, {"buffer" : 0, "byteOffset" : 133128, "byteLength" : 21888, "byteStride" : 32, "target" : 34962}, {"buffer" : 0, "byteOffset" : 155020, "byteLength" : 21888, "byteStride" : 32, "target" : 34962}, {"buffer" : 0, "byteOffset" : 176912, "byteLength" : 21888, "byteStride" : 32, "target" : 34962}, {"buffer" : 0, "byteOffset" : 198804, "byteLength" : 21888, "byteStride" : 32, "target" : 34962}, {"buffer" : 0, "byteOffset" : 220696, "byteLength" : 21888, "byteStride" : 32, "target" : 34962}, {"buffer" : 0, "byteOffset" : 242588, "byteLength" : 21888, "byteStride" : 32, "target" : 34962}, {"buffer" : 0, "byteOffset" : 264480, "byteLength" : 21888, "byteStride" : 32, "target" : 34962}, {"buffer" : 0, "byteOffset" : 286372, "byteLength" : 21888, "byteStride" : 32, "target" : 34962}, {"buffer" : 0, "byteOffset" : 308264, "byteLength" : 21888, "byteStride" : 32, "target" : 34962}, {"buffer" : 0, "byteOffset" : 330156, "byteLength" : 21888, "byteStride" : 32, "target" : 34962}, {"buffer" : 0, "byteOffset" : 352048, "byteLength" : 50304, "byteStride" : 32, "target" : 34962}], "materials" : [{"name" : "0.001", "pbrMetallicRoughness" : {"baseColorFactor" : [0.5, 0.5, 0.5, 1], "metallicFactor" : 0, "roughnessFactor" : 0}, "emissiveFactor" : [0, 0, 0], "alphaMode" : "OPAQUE", "doubleSided" : true}, {"name" : "0.001", "pbrMetallicRoughness" : {"baseColorFactor" : [0.5, 0.5, 0.5, 1], "metallicFactor" : 0, "roughnessFactor" : 0}, "emissiveFactor" : [0, 0, 0], "alphaMode" : "OPAQUE", "doubleSided" : true}, {"name" : "0.001", "pbrMetallicRoughness" : {"baseColorFactor" : [0.5, 0.5, 0.5, 1], "metallicFactor" : 0, "roughnessFactor" : 0}, "emissiveFactor" : [0, 0, 0], "alphaMode" : "OPAQUE", "doubleSided" : true}, {"name" : "0.001", "pbrMetallicRoughness" : {"baseColorFactor" : [0.5, 0.5, 0.5, 1], "metallicFactor" : 0, "roughnessFactor" : 0}, "emissiveFactor" : [0, 0, 0], "alphaMode" : "OPAQUE", "doubleSided" : true}, {"name" : "0.001", "pbrMetallicRoughness" : {"baseColorFactor" : [0.5, 0.5, 0.5, 1], "metallicFactor" : 0, "roughnessFactor" : 0}, "emissiveFactor" : [0, 0, 0], "alphaMode" : "OPAQUE", "doubleSided" : true}, {"name" : "0.001", "pbrMetallicRoughness" : {"baseColorFactor" : [0.5, 0.5, 0.5, 1], "metallicFactor" : 0, "roughnessFactor" : 0}, "emissiveFactor" : [0, 0, 0], "alphaMode" : "OPAQUE", "doubleSided" : true}, {"name" : "0.001", "pbrMetallicRoughness" : {"baseColorFactor" : [0.5, 0.5, 0.5, 1], "metallicFactor" : 0, "roughnessFactor" : 0}, "emissiveFactor" : [0, 0, 0], "alphaMode" : "OPAQUE", "doubleSided" : true}, {"name" : "0.001", "pbrMetallicRoughness" : {"baseColorFactor" : [0.5, 0.5, 0.5, 1], "metallicFactor" : 0, "roughnessFactor" : 0}, "emissiveFactor" : [0, 0, 0], "alphaMode" : "OPAQUE", "doubleSided" : true}, {"name" : "0.001", "pbrMetallicRoughness" : {"baseColorFactor" : [0.5, 0.5, 0.5, 1], "metallicFactor" : 0, "roughnessFactor" : 0}, "emissiveFactor" : [0, 0, 0], "alphaMode" : "OPAQUE", "doubleSided" : true}, {"name" : "0.001", "pbrMetallicRoughness" : {"baseColorFactor" : [0.5, 0.5, 0.5, 1], "metallicFactor" : 0, "roughnessFactor" : 0}, "emissiveFactor" : [0, 0, 0], "alphaMode" : "OPAQUE", "doubleSided" : true}, {"name" : "0.001", "pbrMetallicRoughness" : {"baseColorFactor" : [0.5, 0.5, 0.5, 1], "metallicFactor" : 0, "roughnessFactor" : 0}, "emissiveFactor" : [0, 0, 0], "alphaMode" : "OPAQUE", "doubleSided" : true}, {"name" : "0.001", "pbrMetallicRoughness" : {"baseColorFactor" : [0.5, 0.5, 0.5, 1], "metallicFactor" : 0, "roughnessFactor" : 0}, "emissiveFactor" : [0, 0, 0], "alphaMode" : "OPAQUE", "doubleSided" : true}, {"name" : "0.001", "pbrMetallicRoughness" : {"baseColorFactor" : [0.5, 0.5, 0.5, 1], "metallicFactor" : 0, "roughnessFactor" : 0}, "emissiveFactor" : [0, 0, 0], "alphaMode" : "OPAQUE", "doubleSided" : true}, {"name" : "0.001", "pbrMetallicRoughness" : {"baseColorFactor" : [0.5, 0.5, 0.5, 1], "metallicFactor" : 0, "roughnessFactor" : 0}, "emissiveFactor" : [0, 0, 0], "alphaMode" : "OPAQUE", "doubleSided" : true}, {"name" : "0.001", "pbrMetallicRoughness" : {"baseColorFactor" : [0.5, 0.5, 0.5, 1], "metallicFactor" : 0, "roughnessFactor" : 0}, "emissiveFactor" : [0, 0, 0], "alphaMode" : "OPAQUE", "doubleSided" : true}, {"name" : "0.001", "pbrMetallicRoughness" : {"baseColorFactor" : [0.5, 0.5, 0.5, 1], "metallicFactor" : 0, "roughnessFactor" : 0}, "emissiveFactor" : [0, 0, 0], "alphaMode" : "OPAQUE", "doubleSided" : true}], "meshes" : [{"primitives" : [{"attributes" : {"POSITION" : 1, "NORMAL" : 2, "TEXCOORD_0" : 3}, "indices" : 0, "material" : 0, "mode" : 4}]}, {"primitives" : [{"attributes" : {"POSITION" : 5, "NORMAL" : 6, "TEXCOORD_0" : 7}, "indices" : 4, "material" : 1, "mode" : 4}]}, {"primitives" : [{"attributes" : {"POSITION" : 9, "NORMAL" : 10, "TEXCOORD_0" : 11}, "indices" : 8, "material" : 2, "mode" : 4}]}, {"primitives" : [{"attributes" : {"POSITION" : 13, "NORMAL" : 14, "TEXCOORD_0" : 15}, "indices" : 12, "material" : 3, "mode" : 4}]}, {"primitives" : [{"attributes" : {"POSITION" : 17, "NORMAL" : 18, "TEXCOORD_0" : 19}, "indices" : 16, "material" : 4, "mode" : 4}]}, {"primitives" : [{"attributes" : {"POSITION" : 21, "NORMAL" : 22, "TEXCOORD_0" : 23}, "indices" : 20, "material" : 5, "mode" : 4}]}, {"primitives" : [{"attributes" : {"POSITION" : 25, "NORMAL" : 26, "TEXCOORD_0" : 27}, "indices" : 24, "material" : 6, "mode" : 4}]}, {"primitives" : [{"attributes" : {"POSITION" : 29, "NORMAL" : 30, "TEXCOORD_0" : 31}, "indices" : 28, "material" : 7, "mode" : 4}]}, {"primitives" : [{"attributes" : {"POSITION" : 33, "NORMAL" : 34, "TEXCOORD_0" : 35}, "indices" : 32, "material" : 8, "mode" : 4}]}, {"primitives" : [{"attributes" : {"POSITION" : 37, "NORMAL" : 38, "TEXCOORD_0" : 39}, "indices" : 36, "material" : 9, "mode" : 4}]}, {"primitives" : [{"attributes" : {"POSITION" : 41, "NORMAL" : 42, "TEXCOORD_0" : 43}, "indices" : 40, "material" : 10, "mode" : 4}]}, {"primitives" : [{"attributes" : {"POSITION" : 45, "NORMAL" : 46, "TEXCOORD_0" : 47}, "indices" : 44, "material" : 11, "mode" : 4}]}, {"primitives" : [{"attributes" : {"POSITION" : 49, "NORMAL" : 50, "TEXCOORD_0" : 51}, "indices" : 48, "material" : 12, "mode" : 4}]}, {"primitives" : [{"attributes" : {"POSITION" : 53, "NORMAL" : 54, "TEXCOORD_0" : 55}, "indices" : 52, "material" : 13, "mode" : 4}]}, {"primitives" : [{"attributes" : {"POSITION" : 57, "NORMAL" : 58, "TEXCOORD_0" : 59}, "indices" : 56, "material" : 14, "mode" : 4}]}, {"primitives" : [{"attributes" : {"POSITION" : 61, "NORMAL" : 62, "TEXCOORD_0" : 63}, "indices" : 60, "material" : 15, "mode" : 4}]}], "nodes" : [{"matrix" : [1, 0, -1.510029505880084E-07, 0, 0, -1, 0, 0, 1.510029505880084E-07, 0, 1, 0, -1.3295173645019531, -1.0684279203414917, 23.970491409301758, 1], "mesh" : 0, "name" : "Line1235"}, {"matrix" : [1, 0, -1.510029505880084E-07, 0, 0, -1, 0, 0, 1.510029505880084E-07, 0, 1, 0, -1.3295173645019531, -1.0684279203414917, 15.075010299682617, 1], "mesh" : 1, "name" : "Line1236"}, {"matrix" : [1, 0, -1.510029505880084E-07, 0, 0, -1, 0, 0, 1.510029505880084E-07, 0, 1, 0, -1.3295173645019531, -1.0684261322021484, 6.179529190063477, 1], "mesh" : 2, "name" : "Line1237"}, {"matrix" : [1, 0, -1.510029505880084E-07, 0, 0, -1, 0, 0, 1.510029505880084E-07, 0, 1, 0, -1.3295173645019531, -1.0684261322021484, -2.7159535884857178, 1], "mesh" : 3, "name" : "Line1238"}, {"matrix" : [1, 0, -1.510029505880084E-07, 0, 0, -1, 0, 0, 1.510029505880084E-07, 0, 1, 0, -1.3295173645019531, -1.0684261322021484, -11.611427307128906, 1], "mesh" : 4, "name" : "Line1239"}, {"matrix" : [1, 0, -1.510029505880084E-07, 0, 0, -1, 0, 0, 1.510029505880084E-07, 0, 1, 0, -1.3295173645019531, 0.35468101501464844, 15.075010299682617, 1], "mesh" : 5, "name" : "Line1240"}, {"matrix" : [1, 0, -1.510029505880084E-07, 0, 0, -1, 0, 0, 1.510029505880084E-07, 0, 1, 0, -1.3295173645019531, 0.35468101501464844, 6.179529190063477, 1], "mesh" : 6, "name" : "Line1241"}, {"matrix" : [1, 0, -1.510029505880084E-07, 0, 0, -1, 0, 0, 1.510029505880084E-07, 0, 1, 0, -1.3295173645019531, 0.35468098521232605, -2.715953826904297, 1], "mesh" : 7, "name" : "Line1242"}, {"matrix" : [1, 0, -1.510029505880084E-07, 0, 0, -1, 0, 0, 1.510029505880084E-07, 0, 1, 0, -1.3295173645019531, 0.35468101501464844, -11.611427307128906, 1], "mesh" : 8, "name" : "Line1243"}, {"matrix" : [1, 0, -1.510029505880084E-07, 0, 0, -1, 0, 0, 1.510029505880084E-07, 0, 1, 0, -1.3295173645019531, 0.35467907786369324, 23.970491409301758, 1], "mesh" : 9, "name" : "Line1244"}, {"matrix" : [1, 0, -1.510029505880084E-07, 0, 0, -1, 0, 0, 1.510029505880084E-07, 0, 1, 0, -1.3295173645019531, 1.7777881622314453, 15.075010299682617, 1], "mesh" : 10, "name" : "Line1245"}, {"matrix" : [1, 0, -1.510029505880084E-07, 0, 0, -1, 0, 0, 1.510029505880084E-07, 0, 1, 0, -1.3295173645019531, 1.7777880430221558, 6.179528713226318, 1], "mesh" : 11, "name" : "Line1246"}, {"matrix" : [1, 0, -1.510029505880084E-07, 0, 0, -1, 0, 0, 1.510029505880084E-07, 0, 1, 0, -1.3295173645019531, 1.7777879238128662, -2.715954065322876, 1], "mesh" : 12, "name" : "Line1247"}, {"matrix" : [1, 0, -1.510029505880084E-07, 0, 0, -1, 0, 0, 1.510029505880084E-07, 0, 1, 0, -1.3295173645019531, 1.7777880430221558, -11.611427307128906, 1], "mesh" : 13, "name" : "Line1248"}, {"matrix" : [1, 0, -1.510029505880084E-07, 0, 0, -1, 0, 0, 1.510029505880084E-07, 0, 1, 0, -1.3295173645019531, 1.7777880430221558, 23.970491409301758, 1], "mesh" : 14, "name" : "Line1249"}, {"matrix" : [1, 0, 0, 0, 0, -1.3435885648505064E-07, 0.9999999657714511, 0, 0, -0.9999999657714511, -1.3435885648505064E-07, 0, -1.3295173645019531, -2.237518072128296, 3.8722004890441895, 1], "mesh" : 15, "name" : "Rectangle0"}, {"children" : [0, 1, 2, 3, 4, 5, 6, 7, 8, 9, 10, 11, 12, 13, 14, 15], "matrix" : [0.009999999776482582, 0, 0, 0, 0, -1.3435885348189617E-09, 0.009999999434197101, 0, 0, -0.009999999434197101, -1.3435885348189617E-09, 0, 0, 0.3015282154083252, 0, 1], "name" : "krawat"}], "scene" : 0, "scenes" : [{"nodes" : [16]}]}