{"accessors" : [{"bufferView" : 0, "byteOffset" : 0, "componentType" : 5123, "count" : 606, "type" : "SCALAR", "max" : [556], "min" : [0]}, {"bufferView" : 1, "byteOffset" : 0, "componentType" : 5126, "count" : 557, "type" : "VEC3", "max" : [0.8081567883491516, 0.4423643946647644, 1.2496460044530977E-07], "min" : [-2.8920373916625977, -0.3686842918395996, -19.685039520263672], "name" : "POSITION"}, {"bufferView" : 1, "byteOffset" : 12, "componentType" : 5126, "count" : 557, "type" : "VEC3", "max" : [1.0000044107437134, 1.0000044107437134, 1.0000044107437134], "min" : [-1.0000044107437134, -1.0000044107437134, -1.0000044107437134], "name" : "NORMAL"}, {"bufferView" : 1, "byteOffset" : 24, "componentType" : 5126, "count" : 557, "type" : "VEC2", "max" : [0.8081559538841248, 1.663318395614624], "min" : [-2.8920371532440186, 0.6313157081604004], "name" : "TEXCOORD_0"}, {"bufferView" : 0, "byteOffset" : 1212, "componentType" : 5123, "count" : 16026, "type" : "SCALAR", "max" : [15760], "min" : [0]}, {"bufferView" : 2, "byteOffset" : 0, "componentType" : 5126, "count" : 15761, "type" : "VEC3", "max" : [3.9674413204193115, 1.918257713317871, 0.03978606313467026], "min" : [0.7687855958938599, -1.9404247999191284, -19.685039520263672], "name" : "POSITION"}, {"bufferView" : 2, "byteOffset" : 12, "componentType" : 5126, "count" : 15761, "type" : "VEC3", "max" : [1.0000044107437134, 1.0000044107437134, 1.0000044107437134], "min" : [-1.0000044107437134, -1.0000044107437134, -1.0000044107437134], "name" : "NORMAL"}, {"bufferView" : 2, "byteOffset" : 24, "componentType" : 5126, "count" : 15761, "type" : "VEC2", "max" : [1.311745047569275, 2.8644824028015137], "min" : [-1.3596394062042236, -0.26520347595214844], "name" : "TEXCOORD_0"}], "asset" : {"generator" : "Aspose.3D 23.4.0", "version" : "2.0"}, "buffers" : [{"uri" : "data:application/octet-stream;base64,", "byteLength" : 565500}], "bufferViews" : [{"buffer" : 0, "byteOffset" : 0, "byteLength" : 33264, "target" : 34963}, {"buffer" : 0, "byteOffset" : 33268, "byteLength" : 19392, "byteStride" : 32, "target" : 34962}, {"buffer" : 0, "byteOffset" : 52664, "byteLength" : 512832, "byteStride" : 32, "target" : 34962}], "materials" : [{"name" : "0.002", "pbrMetallicRoughness" : {"baseColorFactor" : [0.5, 0.5, 0.5, 1], "metallicFactor" : 0, "roughnessFactor" : 0}, "emissiveFactor" : [0, 0, 0], "alphaMode" : "OPAQUE", "doubleSided" : true}, {"name" : "0.002", "pbrMetallicRoughness" : {"baseColorFactor" : [0.5, 0.5, 0.5, 1], "metallicFactor" : 0, "roughnessFactor" : 0}, "emissiveFactor" : [0, 0, 0], "alphaMode" : "OPAQUE", "doubleSided" : true}], "meshes" : [{"primitives" : [{"attributes" : {"POSITION" : 1, "NORMAL" : 2, "TEXCOORD_0" : 3}, "indices" : 0, "material" : 0, "mode" : 4}]}, {"primitives" : [{"attributes" : {"POSITION" : 5, "NORMAL" : 6, "TEXCOORD_0" : 7}, "indices" : 4, "material" : 1, "mode" : 4}]}], "nodes" : [{"matrix" : [-1.192092966562086E-07, 1.0000001192092896, -1.192092966562086E-07, 0, 0, 0, 1.0000001192092896, 0, 1.0000001192092967, 0, -1.192092966562086E-07, 0, 9.822633743286133, -0.5377011299133301, 0.011083483695983887, 1], "mesh" : 0, "name" : "Line006"}, {"matrix" : [-1.192092966562086E-07, 1.0000001192092896, -1.192092966562086E-07, 0, 0, 0, 1.0000001192092896, 0, 1.0000001192092967, 0, -1.192092966562086E-07, 0, 9.822633743286133, -0.5377011299133301, 0.011083483695983887, 1], "mesh" : 1, "name" : "Object001"}, {"children" : [0, 1], "matrix" : [0.007071067247695757, 2.5576994172679203E-10, -0.007071068441031311, 0, 0.007071068441031241, -2.6388841987937035E-09, 0.00707106816774635, 0, -1.0345421710099718E-09, -0.010000000696533158, -2.3163061706095125E-09, 0, 0, 0, 0, 1], "name" : "LISTWA_CWN"}], "scene" : 0, "scenes" : [{"nodes" : [2]}]}