{"accessors" : [{"bufferView" : 0, "byteOffset" : 0, "componentType" : 5123, "count" : 1248, "type" : "SCALAR", "max" : [1041], "min" : [0]}, {"bufferView" : 1, "byteOffset" : 0, "componentType" : 5126, "count" : 1042, "type" : "VEC3", "max" : [25.32091522216797, 7.800320148468018, 0.15748171508312225], "min" : [-25.324111938476562, -7.845242977142334, -0.03936971724033356], "name" : "POSITION"}, {"bufferView" : 1, "byteOffset" : 12, "componentType" : 5126, "count" : 1042, "type" : "VEC3", "max" : [0.9992726445198059, 0.9992722868919373, 1.0000044107437134], "min" : [-0.999826967716217, -0.999870777130127, -1.0000044107437134], "name" : "NORMAL"}, {"bufferView" : 1, "byteOffset" : 24, "componentType" : 5126, "count" : 1042, "type" : "VEC2", "max" : [1.1304304599761963, 0.7670832872390747], "min" : [0.10605093091726303, 0.18036574125289917], "name" : "TEXCOORD_0"}, {"bufferView" : 0, "byteOffset" : 2496, "componentType" : 5123, "count" : 264, "type" : "SCALAR", "max" : [247], "min" : [0]}, {"bufferView" : 2, "byteOffset" : 0, "componentType" : 5126, "count" : 248, "type" : "VEC3", "max" : [23.622047424316406, 0.3937007784843445, 13.77952766418457], "min" : [-23.622047424316406, -15.29981517791748, -2.920312169862882E-07], "name" : "POSITION"}, {"bufferView" : 2, "byteOffset" : 12, "componentType" : 5126, "count" : 248, "type" : "VEC3", "max" : [1.0000044107437134, 1.0000044107437134, 1.0000044107437134], "min" : [-1.0000044107437134, -1.0000044107437134, -1.0000044107437134], "name" : "NORMAL"}, {"bufferView" : 2, "byteOffset" : 24, "componentType" : 5126, "count" : 248, "type" : "VEC2", "max" : [0.8832674026489258, 0.7032480239868164], "min" : [0.11673260480165482, 0.2967519760131836], "name" : "TEXCOORD_0"}], "asset" : {"generator" : "Aspose.3D 23.4.0", "version" : "2.0"}, "buffers" : [{"uri" : "data:application/octet-stream;base64,", "byteLength" : 51420}], "bufferViews" : [{"buffer" : 0, "byteOffset" : 0, "byteLength" : 3024, "target" : 34963}, {"buffer" : 0, "byteOffset" : 3028, "byteLength" : 39936, "byteStride" : 32, "target" : 34962}, {"buffer" : 0, "byteOffset" : 42968, "byteLength" : 8448, "byteStride" : 32, "target" : 34962}], "materials" : [{"name" : "0.003", "pbrMetallicRoughness" : {"baseColorFactor" : [0.5, 0.5, 0.5, 1], "metallicFactor" : 0, "roughnessFactor" : 0}, "emissiveFactor" : [0, 0, 0], "alphaMode" : "OPAQUE", "doubleSided" : true}, {"name" : "0.003", "pbrMetallicRoughness" : {"baseColorFactor" : [0.5, 0.5, 0.5, 1], "metallicFactor" : 0, "roughnessFactor" : 0}, "emissiveFactor" : [0, 0, 0], "alphaMode" : "OPAQUE", "doubleSided" : true}], "meshes" : [{"primitives" : [{"attributes" : {"POSITION" : 1, "NORMAL" : 2, "TEXCOORD_0" : 3}, "indices" : 0, "material" : 0, "mode" : 4}]}, {"primitives" : [{"attributes" : {"POSITION" : 5, "NORMAL" : 6, "TEXCOORD_0" : 7}, "indices" : 4, "material" : 1, "mode" : 4}]}], "nodes" : [{"matrix" : [1, 0, 0, 0, 0, -1.3435885648505064E-07, 0.9999999657714511, 0, 0, -0.9999999657714511, -1.3435885648505064E-07, 0, 0.0015974044799804688, 6.936695098876953, 0, 1], "mesh" : 0, "name" : "Rectangle0"}, {"matrix" : [1, 0, 0, 0, 0, -1.3435885648505064E-07, 0.9999999657714511, 0, 0, -0.9999999657714511, -1.3435885648505064E-07, 0, 0.001597567112185061, 6.803464412689209, 7.453058242797852, 1], "mesh" : 1, "name" : "Rectangle1"}, {"children" : [0, 1], "matrix" : [0.008660253958059848, -2.1816812757224395E-10, -0.004999999619017827, 0, 0.004999999619017827, 1.0834380084062804E-09, 0.008660253688836366, 0, 2.1816812757224395E-10, -0.0099999995072591, 1.0834380084062804E-09, 0, 0, 0, 0, 1], "name" : "LISTWA_PL"}], "scene" : 0, "scenes" : [{"nodes" : [2]}]}