{"accessors" : [{"bufferView" : 0, "byteOffset" : 0, "componentType" : 5123, "count" : 26904, "type" : "SCALAR", "max" : [21863], "min" : [0]}, {"bufferView" : 1, "byteOffset" : 0, "componentType" : 5126, "count" : 21864, "type" : "VEC3", "max" : [3.7478086948394775, 4.16990327835083, 6.650981845268689E-07], "min" : [-4.043521404266357, -4.584937572479248, -0.11185138672590256], "name" : "POSITION"}, {"bufferView" : 1, "byteOffset" : 12, "componentType" : 5126, "count" : 21864, "type" : "VEC3", "max" : [1.0000041723251343, 1.0000044107437134, 1.0000044107437134], "min" : [-1.0000044107437134, -1.0000044107437134, -1.0000044107437134], "name" : "NORMAL"}, {"bufferView" : 1, "byteOffset" : 24, "componentType" : 5126, "count" : 21864, "type" : "VEC2", "max" : [0.9995005130767822, 0.9995005130767822], "min" : [0.0004994571208953857, 0.0004993677139282227], "name" : "TEXCOORD_0"}, {"bufferView" : 0, "byteOffset" : 53808, "componentType" : 5123, "count" : 372, "type" : "SCALAR", "max" : [354], "min" : [0]}, {"bufferView" : 2, "byteOffset" : 0, "componentType" : 5126, "count" : 355, "type" : "VEC3", "max" : [1.771653652191162, 1.3195528984069824, -0], "min" : [-1.771653652191162, -1.2411346435546875, -0.30152463912963867], "name" : "POSITION"}, {"bufferView" : 2, "byteOffset" : 12, "componentType" : 5126, "count" : 355, "type" : "VEC3", "max" : [1.0000044107437134, 1.0000044107437134, 1.0000044107437134], "min" : [-1.0000044107437134, -0.9992719888687134, -1.0000044107437134], "name" : "NORMAL"}, {"bufferView" : 2, "byteOffset" : 24, "componentType" : 5126, "count" : 355, "type" : "VEC2", "max" : [1.3922419548034668, 0.7107411623001099], "min" : [0.107758067548275, 0.2967817187309265], "name" : "TEXCOORD_0"}], "asset" : {"generator" : "Aspose.3D 23.4.0", "version" : "2.0"}, "buffers" : [{"uri" : "data:application/octet-stream;base64,", "byteLength" : 927396}], "bufferViews" : [{"buffer" : 0, "byteOffset" : 0, "byteLength" : 54552, "target" : 34963}, {"buffer" : 0, "byteOffset" : 54556, "byteLength" : 860928, "byteStride" : 32, "target" : 34962}, {"buffer" : 0, "byteOffset" : 915488, "byteLength" : 11904, "byteStride" : 32, "target" : 34962}], "materials" : [{"name" : "0.006", "pbrMetallicRoughness" : {"baseColorFactor" : [0.5, 0.5, 0.5, 1], "metallicFactor" : 0, "roughnessFactor" : 0}, "emissiveFactor" : [0, 0, 0], "alphaMode" : "OPAQUE", "doubleSided" : true}, {"name" : "0.006", "pbrMetallicRoughness" : {"baseColorFactor" : [0.5, 0.5, 0.5, 1], "metallicFactor" : 0, "roughnessFactor" : 0}, "emissiveFactor" : [0, 0, 0], "alphaMode" : "OPAQUE", "doubleSided" : true}], "meshes" : [{"primitives" : [{"attributes" : {"POSITION" : 1, "NORMAL" : 2, "TEXCOORD_0" : 3}, "indices" : 0, "material" : 0, "mode" : 4}]}, {"primitives" : [{"attributes" : {"POSITION" : 5, "NORMAL" : 6, "TEXCOORD_0" : 7}, "indices" : 4, "material" : 1, "mode" : 4}]}], "nodes" : [{"matrix" : [0.8873915076255798, 0, 0, 0, 0, 0.1413001706375674, 0.876069685295834, 0, 0, -0.876069685295834, 0.1413001706375674, 0, 0.1312103420495987, 0.6995086073875427, 0.1897016167640686, 1], "mesh" : 0, "name" : "Ellipse001"}, {"matrix" : [1, 0, 0, 0, 0, 1, 0, 0, 0, 0, 1, 0, 0.0766754075884819, -0.14557647705078125, 3.158355236053467, 1], "mesh" : 1, "name" : "Rectangle0"}, {"children" : [0, 1], "matrix" : [0.008660253958059848, -2.1816812757224395E-10, -0.004999999619017827, 0, 0.004999999619017827, 1.0834380084062804E-09, 0.008660253688836366, 0, 2.1816812757224395E-10, -0.0099999995072591, 1.0834380084062804E-09, 0, 0.00037470771349035203, 0.04188252240419388, 0.0004014754085801542, 1], "name" : "RAMKA"}], "scene" : 0, "scenes" : [{"nodes" : [2]}]}