{"accessors" : [{"bufferView" : 0, "byteOffset" : 0, "componentType" : 5123, "count" : 8298, "type" : "SCALAR", "max" : [6766], "min" : [0]}, {"bufferView" : 1, "byteOffset" : 0, "componentType" : 5126, "count" : 6767, "type" : "VEC3", "max" : [11.691580772399902, 31.496065139770508, 1.3714582920074463], "min" : [-18.296031951904297, -37.06658172607422, -1.7781487703323364], "name" : "POSITION"}, {"bufferView" : 1, "byteOffset" : 12, "componentType" : 5126, "count" : 6767, "type" : "VEC3", "max" : [1.0000044107437134, 1.0000044107437134, 1.0000044107437134], "min" : [-1.0000044107437134, -1.0000044107437134, -1.0000044107437134], "name" : "NORMAL"}, {"bufferView" : 1, "byteOffset" : 24, "componentType" : 5126, "count" : 6767, "type" : "VEC2", "max" : [1.1936293840408325, 0.5111578702926636], "min" : [0.19269999861717224, 0.4855373501777649], "name" : "TEXCOORD_0"}], "asset" : {"generator" : "Aspose.3D 23.4.0", "version" : "2.0"}, "buffers" : [{"uri" : "data:application/octet-stream;base64,", "byteLength" : 282140}], "bufferViews" : [{"buffer" : 0, "byteOffset" : 0, "byteLength" : 16596, "target" : 34963}, {"buffer" : 0, "byteOffset" : 16600, "byteLength" : 265536, "byteStride" : 32, "target" : 34962}], "materials" : [{"name" : "0.007", "pbrMetallicRoughness" : {"baseColorFactor" : [0.5, 0.5, 0.5, 1], "metallicFactor" : 0, "roughnessFactor" : 0}, "emissiveFactor" : [0, 0, 0], "alphaMode" : "OPAQUE", "doubleSided" : true}], "meshes" : [{"primitives" : [{"attributes" : {"POSITION" : 1, "NORMAL" : 2, "TEXCOORD_0" : 3}, "indices" : 0, "material" : 0, "mode" : 4}]}], "nodes" : [{"matrix" : [0.007071067292883521, -5.338507065578085E-10, 0.007071067872841207, 0, 5.338507065578085E-10, -0.009999999091305455, -1.2888294971538304E-09, 0, 0.007071067872841207, 1.2888294971538304E-09, -0.007071066607706394, 0, 0.0020334443543106318, 0.007125978358089924, 0.002740071387961507, 1], "mesh" : 0, "name" : "SHELFSTOPE"}], "scene" : 0, "scenes" : [{"nodes" : [0]}]}