{"accessors" : [{"bufferView" : 0, "byteOffset" : 0, "componentType" : 5123, "count" : 180, "type" : "SCALAR", "max" : [170], "min" : [0]}, {"bufferView" : 1, "byteOffset" : 0, "componentType" : 5126, "count" : 171, "type" : "VEC3", "max" : [5.740147113800049, 0.5905517339706421, 1.327309604448601E-07], "min" : [-5.740146636962891, -0.5905517339706421, -8.62100887298584], "name" : "POSITION"}, {"bufferView" : 1, "byteOffset" : 12, "componentType" : 5126, "count" : 171, "type" : "VEC3", "max" : [1.0000044107437134, 1.0000044107437134, 1.0000044107437134], "min" : [-1.0000044107437134, -1.0000044107437134, -1.0000044107437134], "name" : "NORMAL"}, {"bufferView" : 1, "byteOffset" : 24, "componentType" : 5126, "count" : 171, "type" : "VEC2", "max" : [1.3799395561218262, 0.7014944553375244], "min" : [0.11951394379138947, 0.29850536584854126], "name" : "TEXCOORD_0"}, {"bufferView" : 0, "byteOffset" : 360, "componentType" : 5123, "count" : 180, "type" : "SCALAR", "max" : [170], "min" : [0]}, {"bufferView" : 2, "byteOffset" : 0, "componentType" : 5126, "count" : 171, "type" : "VEC3", "max" : [5.740147113800049, 0.5905517339706421, 1.327309604448601E-07], "min" : [-5.740146636962891, -0.5905517339706421, -8.154682159423828], "name" : "POSITION"}, {"bufferView" : 2, "byteOffset" : 12, "componentType" : 5126, "count" : 171, "type" : "VEC3", "max" : [1.0000044107437134, 1.0000044107437134, 1.0000044107437134], "min" : [-1.0000044107437134, -1.0000044107437134, -1.0000044107437134], "name" : "NORMAL"}, {"bufferView" : 2, "byteOffset" : 24, "componentType" : 5126, "count" : 171, "type" : "VEC2", "max" : [1.3799395561218262, 0.7014944553375244], "min" : [0.11951392889022827, 0.29850536584854126], "name" : "TEXCOORD_0"}, {"bufferView" : 0, "byteOffset" : 720, "componentType" : 5123, "count" : 180, "type" : "SCALAR", "max" : [170], "min" : [0]}, {"bufferView" : 3, "byteOffset" : 0, "componentType" : 5126, "count" : 171, "type" : "VEC3", "max" : [5.740146636962891, 0.5905517339706421, 1.327309604448601E-07], "min" : [-5.740146636962891, -0.5905517339706421, -6.643829822540283], "name" : "POSITION"}, {"bufferView" : 3, "byteOffset" : 12, "componentType" : 5126, "count" : 171, "type" : "VEC3", "max" : [1.0000044107437134, 1.0000044107437134, 1.0000044107437134], "min" : [-1.0000044107437134, -1.0000044107437134, -1.0000044107437134], "name" : "NORMAL"}, {"bufferView" : 3, "byteOffset" : 24, "componentType" : 5126, "count" : 171, "type" : "VEC2", "max" : [1.3799395561218262, 0.7014944553375244], "min" : [0.11951389163732529, 0.29850536584854126], "name" : "TEXCOORD_0"}, {"bufferView" : 0, "byteOffset" : 1080, "componentType" : 5123, "count" : 300, "type" : "SCALAR", "max" : [280], "min" : [0]}, {"bufferView" : 4, "byteOffset" : 0, "componentType" : 5126, "count" : 281, "type" : "VEC3", "max" : [0.2755911350250244, 0.25590550899505615, 7.032790108496556E-06], "min" : [-0.27559104561805725, -57.338111877441406, -13.999932289123535], "name" : "POSITION"}, {"bufferView" : 4, "byteOffset" : 12, "componentType" : 5126, "count" : 281, "type" : "VEC3", "max" : [1.0000044107437134, 1.0000044107437134, 1.0000044107437134], "min" : [-1.0000044107437134, -1.0000044107437134, -1.0000044107437134], "name" : "NORMAL"}, {"bufferView" : 4, "byteOffset" : 24, "componentType" : 5126, "count" : 281, "type" : "VEC2", "max" : [1.3714392185211182, 0.7012985944747925], "min" : [0.12266349047422409, 0.2963370084762573], "name" : "TEXCOORD_0"}, {"bufferView" : 0, "byteOffset" : 1680, "componentType" : 5123, "count" : 180, "type" : "SCALAR", "max" : [170], "min" : [0]}, {"bufferView" : 5, "byteOffset" : 0, "componentType" : 5126, "count" : 171, "type" : "VEC3", "max" : [5.740147113800049, 0.5905517339706421, 6.818877551495461E-08], "min" : [-5.740146636962891, -0.5905517339706421, -6.643829345703125], "name" : "POSITION"}, {"bufferView" : 5, "byteOffset" : 12, "componentType" : 5126, "count" : 171, "type" : "VEC3", "max" : [1.0000044107437134, 1.0000044107437134, 1.0000044107437134], "min" : [-1.0000044107437134, -1.0000044107437134, -1.0000044107437134], "name" : "NORMAL"}, {"bufferView" : 5, "byteOffset" : 24, "componentType" : 5126, "count" : 171, "type" : "VEC2", "max" : [1.3799395561218262, 0.7014944553375244], "min" : [0.11951389163732529, 0.29850536584854126], "name" : "TEXCOORD_0"}, {"bufferView" : 0, "byteOffset" : 2040, "componentType" : 5123, "count" : 300, "type" : "SCALAR", "max" : [280], "min" : [0]}, {"bufferView" : 6, "byteOffset" : 0, "componentType" : 5126, "count" : 281, "type" : "VEC3", "max" : [0.275591105222702, 0.25590550899505615, 6.831270184193272E-06], "min" : [-0.2755909562110901, -57.338111877441406, -13.999932289123535], "name" : "POSITION"}, {"bufferView" : 6, "byteOffset" : 12, "componentType" : 5126, "count" : 281, "type" : "VEC3", "max" : [1.0000044107437134, 1.0000044107437134, 1.0000042915344238], "min" : [-1.0000044107437134, -1.0000044107437134, -1.0000044107437134], "name" : "NORMAL"}, {"bufferView" : 6, "byteOffset" : 24, "componentType" : 5126, "count" : 281, "type" : "VEC2", "max" : [1.3714392185211182, 0.7012985944747925], "min" : [0.12266360968351364, 0.2963370084762573], "name" : "TEXCOORD_0"}, {"bufferView" : 0, "byteOffset" : 2640, "componentType" : 5123, "count" : 36, "type" : "SCALAR", "max" : [34], "min" : [0]}, {"bufferView" : 7, "byteOffset" : 0, "componentType" : 5126, "count" : 35, "type" : "VEC3", "max" : [5.764040470123291, 15.444717407226562, 0.11811104416847229], "min" : [-5.761792182922363, -15.444716453552246, -2.7990925133281053E-08], "name" : "POSITION"}, {"bufferView" : 7, "byteOffset" : 12, "componentType" : 5126, "count" : 35, "type" : "VEC3", "max" : [1.0000044107437134, 1.0000044107437134, 1.0000044107437134], "min" : [-1.0000044107437134, -1.0000044107437134, -1.0000044107437134], "name" : "NORMAL"}, {"bufferView" : 7, "byteOffset" : 24, "componentType" : 5126, "count" : 35, "type" : "VEC2", "max" : [0.9995005130767822, 0.9995005130767822], "min" : [0.0004994571208953857, 0.0004994869232177734], "name" : "TEXCOORD_0"}, {"bufferView" : 0, "byteOffset" : 2712, "componentType" : 5123, "count" : 252, "type" : "SCALAR", "max" : [217], "min" : [0]}, {"bufferView" : 8, "byteOffset" : 0, "componentType" : 5126, "count" : 218, "type" : "VEC3", "max" : [-5.489436626434326, 28.122955322265625, 0.11811112612485886], "min" : [-17.660627365112305, 18.140605926513672, -9.25920289773785E-07], "name" : "POSITION"}, {"bufferView" : 8, "byteOffset" : 12, "componentType" : 5126, "count" : 218, "type" : "VEC3", "max" : [1.0000044107437134, 1.0000044107437134, 1.0000044107437134], "min" : [-1.0000044107437134, -0.9991331100463867, -1.0000044107437134], "name" : "NORMAL"}, {"bufferView" : 8, "byteOffset" : 24, "componentType" : 5126, "count" : 218, "type" : "VEC2", "max" : [0.9995003938674927, 1], "min" : [0, 0.0004994869232177734], "name" : "TEXCOORD_0"}, {"bufferView" : 0, "byteOffset" : 3216, "componentType" : 5123, "count" : 36, "type" : "SCALAR", "max" : [34], "min" : [0]}, {"bufferView" : 9, "byteOffset" : 0, "componentType" : 5126, "count" : 35, "type" : "VEC3", "max" : [5.750246524810791, 6.312728404998779, 0.11811082065105438], "min" : [-5.767827987670898, -6.321950435638428, -1.9866881473262765E-07], "name" : "POSITION"}, {"bufferView" : 9, "byteOffset" : 12, "componentType" : 5126, "count" : 35, "type" : "VEC3", "max" : [1.0000044107437134, 1.0000044107437134, 1.0000044107437134], "min" : [-1.0000042915344238, -1.0000044107437134, -1.0000044107437134], "name" : "NORMAL"}, {"bufferView" : 9, "byteOffset" : 24, "componentType" : 5126, "count" : 35, "type" : "VEC2", "max" : [0.9995005130767822, 0.9995005130767822], "min" : [0.0004994869232177734, 0.0004994869232177734], "name" : "TEXCOORD_0"}], "asset" : {"generator" : "Aspose.3D 23.4.0", "version" : "2.0"}, "buffers" : [{"uri" : "data:application/octet-stream;base64,", "byteLength" : 55936}], "bufferViews" : [{"buffer" : 0, "byteOffset" : 0, "byteLength" : 3288, "target" : 34963}, {"buffer" : 0, "byteOffset" : 3292, "byteLength" : 5760, "byteStride" : 32, "target" : 34962}, {"buffer" : 0, "byteOffset" : 9056, "byteLength" : 5760, "byteStride" : 32, "target" : 34962}, {"buffer" : 0, "byteOffset" : 14820, "byteLength" : 5760, "byteStride" : 32, "target" : 34962}, {"buffer" : 0, "byteOffset" : 20584, "byteLength" : 9600, "byteStride" : 32, "target" : 34962}, {"buffer" : 0, "byteOffset" : 30188, "byteLength" : 5760, "byteStride" : 32, "target" : 34962}, {"buffer" : 0, "byteOffset" : 35952, "byteLength" : 9600, "byteStride" : 32, "target" : 34962}, {"buffer" : 0, "byteOffset" : 45556, "byteLength" : 1152, "byteStride" : 32, "target" : 34962}, {"buffer" : 0, "byteOffset" : 46712, "byteLength" : 8064, "byteStride" : 32, "target" : 34962}, {"buffer" : 0, "byteOffset" : 54780, "byteLength" : 1152, "byteStride" : 32, "target" : 34962}], "materials" : [{"name" : "0.008", "pbrMetallicRoughness" : {"baseColorFactor" : [0.5, 0.5, 0.5, 1], "metallicFactor" : 0, "roughnessFactor" : 0}, "emissiveFactor" : [0, 0, 0], "alphaMode" : "OPAQUE", "doubleSided" : true}, {"name" : "0.008", "pbrMetallicRoughness" : {"baseColorFactor" : [0.5, 0.5, 0.5, 1], "metallicFactor" : 0, "roughnessFactor" : 0}, "emissiveFactor" : [0, 0, 0], "alphaMode" : "OPAQUE", "doubleSided" : true}, {"name" : "0.008", "pbrMetallicRoughness" : {"baseColorFactor" : [0.5, 0.5, 0.5, 1], "metallicFactor" : 0, "roughnessFactor" : 0}, "emissiveFactor" : [0, 0, 0], "alphaMode" : "OPAQUE", "doubleSided" : true}, {"name" : "0.008", "pbrMetallicRoughness" : {"baseColorFactor" : [0.5, 0.5, 0.5, 1], "metallicFactor" : 0, "roughnessFactor" : 0}, "emissiveFactor" : [0, 0, 0], "alphaMode" : "OPAQUE", "doubleSided" : true}, {"name" : "0.008", "pbrMetallicRoughness" : {"baseColorFactor" : [0.5, 0.5, 0.5, 1], "metallicFactor" : 0, "roughnessFactor" : 0}, "emissiveFactor" : [0, 0, 0], "alphaMode" : "OPAQUE", "doubleSided" : true}, {"name" : "0.008", "pbrMetallicRoughness" : {"baseColorFactor" : [0.5, 0.5, 0.5, 1], "metallicFactor" : 0, "roughnessFactor" : 0}, "emissiveFactor" : [0, 0, 0], "alphaMode" : "OPAQUE", "doubleSided" : true}, {"name" : "0.008", "pbrMetallicRoughness" : {"baseColorFactor" : [0.5, 0.5, 0.5, 1], "metallicFactor" : 0, "roughnessFactor" : 0}, "emissiveFactor" : [0, 0, 0], "alphaMode" : "OPAQUE", "doubleSided" : true}, {"name" : "0.008", "pbrMetallicRoughness" : {"baseColorFactor" : [0.5, 0.5, 0.5, 1], "metallicFactor" : 0, "roughnessFactor" : 0}, "emissiveFactor" : [0, 0, 0], "alphaMode" : "OPAQUE", "doubleSided" : true}, {"name" : "0.008", "pbrMetallicRoughness" : {"baseColorFactor" : [0.5, 0.5, 0.5, 1], "metallicFactor" : 0, "roughnessFactor" : 0}, "emissiveFactor" : [0, 0, 0], "alphaMode" : "OPAQUE", "doubleSided" : true}], "meshes" : [{"primitives" : [{"attributes" : {"POSITION" : 1, "NORMAL" : 2, "TEXCOORD_0" : 3}, "indices" : 0, "material" : 0, "mode" : 4}]}, {"primitives" : [{"attributes" : {"POSITION" : 5, "NORMAL" : 6, "TEXCOORD_0" : 7}, "indices" : 4, "material" : 1, "mode" : 4}]}, {"primitives" : [{"attributes" : {"POSITION" : 9, "NORMAL" : 10, "TEXCOORD_0" : 11}, "indices" : 8, "material" : 2, "mode" : 4}]}, {"primitives" : [{"attributes" : {"POSITION" : 13, "NORMAL" : 14, "TEXCOORD_0" : 15}, "indices" : 12, "material" : 3, "mode" : 4}]}, {"primitives" : [{"attributes" : {"POSITION" : 17, "NORMAL" : 18, "TEXCOORD_0" : 19}, "indices" : 16, "material" : 4, "mode" : 4}]}, {"primitives" : [{"attributes" : {"POSITION" : 21, "NORMAL" : 22, "TEXCOORD_0" : 23}, "indices" : 20, "material" : 5, "mode" : 4}]}, {"primitives" : [{"attributes" : {"POSITION" : 25, "NORMAL" : 26, "TEXCOORD_0" : 27}, "indices" : 24, "material" : 6, "mode" : 4}]}, {"primitives" : [{"attributes" : {"POSITION" : 29, "NORMAL" : 30, "TEXCOORD_0" : 31}, "indices" : 28, "material" : 7, "mode" : 4}]}, {"primitives" : [{"attributes" : {"POSITION" : 33, "NORMAL" : 34, "TEXCOORD_0" : 35}, "indices" : 32, "material" : 8, "mode" : 4}]}], "nodes" : [{"matrix" : [1.5611499547958374, 0, 0, 0, 0, -2.0975433874488103E-07, 1.5611500205692252, 0, 0, -1.56114990135994, -2.097543227280572E-07, 0, 0.02319955825805664, -6.857144355773926, 13.80173110961914, 1], "mesh" : 0, "name" : "Rectangle0"}, {"matrix" : [1.5611499547958374, 0, 0, 0, 0, -2.0975433874488103E-07, 1.5611500205692252, 0, 0, -1.56114990135994, -2.097543227280572E-07, 0, 0.02319955825805664, -6.857143878936768, 3.0262906551361084, 1], "mesh" : 1, "name" : "Rectangle1"}, {"matrix" : [1.5611499547958374, 0, 0, 0, 0, -2.0975433874488103E-07, 1.5611500205692252, 0, 0, -1.56114990135994, -2.097543227280572E-07, 0, 0.02319955825805664, -6.857143878936768, -7.428557872772217, 1], "mesh" : 2, "name" : "Rectangle2"}, {"matrix" : [1, 0, 0, 0, 0, -1.3435885648505064E-07, 0.9999999657714511, 0, 0, -0.9999999657714511, -1.3435885648505064E-07, 0, 9.279865264892578, -6.999634742736816, 34.20237731933594, 1], "mesh" : 3, "name" : "Rectangle3"}, {"matrix" : [1.5611499547958374, 0, 0, 0, 0, -2.0975433874488103E-07, 1.5611500205692252, 0, 0, -1.56114990135994, -2.097543227280572E-07, 0, 0.02319955825805664, -6.857144355773926, -17.968536376953125, 1], "mesh" : 4, "name" : "Rectangle4"}, {"matrix" : [1, 0, 0, 0, 0, -1.3435885648505064E-07, 0.9999999657714511, 0, 0, -0.9999999657714511, -1.3435885648505064E-07, 0, -9.279864311218262, -6.999634265899658, 34.20237731933594, 1], "mesh" : 5, "name" : "Rectangle5"}, {"matrix" : [1.5611499547958374, 0, 0, 0, 0, -2.0975433874488103E-07, 1.5611500205692252, 0, 0, -1.56114990135994, -2.097543227280572E-07, 0, 0.02319955825805664, -6.815906524658203, 0.9750670790672302, 1], "mesh" : 6, "name" : "Shape006"}, {"matrix" : [1.5611499547958374, 0, 0, 0, 0, -2.0975433874488103E-07, 1.5611500205692252, 0, 0, -1.56114990135994, -2.097543227280572E-07, 0, 18.11139678955078, -6.800526142120361, -62.77848434448242, 1], "mesh" : 7, "name" : "Shape008"}, {"matrix" : [1.5611499547958374, 0, 0, 0, 0, 0.1360632165097273, 1.5552101445054063, 0, 0, -1.555209906994081, 0.13606319573018508, 0, 0.02319955825805664, 6.075084209442139, 24.600341796875, 1], "mesh" : 8, "name" : "Shape009"}, {"children" : [0, 1, 2, 3, 4, 5, 6, 7, 8], "matrix" : [0.009063077347784283, 2.0573899457190997E-10, 0.004226183236480003, 0, -0.004226183236480003, -1.6865960695215236E-10, 0.009063077470832648, 0, 2.0573899457190997E-10, -0.009999999899530942, -7.74371172085174E-11, 0, 0, 0, 0, 1], "name" : "STAND_KART"}], "scene" : 0, "scenes" : [{"nodes" : [9]}]}