{"accessors" : [{"bufferView" : 0, "byteOffset" : 0, "componentType" : 5123, "count" : 432, "type" : "SCALAR", "max" : [431], "min" : [0]}, {"bufferView" : 1, "byteOffset" : 0, "componentType" : 5126, "count" : 432, "type" : "VEC3", "max" : [0.5, 0.5, 7.855658054351807], "min" : [-0.5, -0.5, -7.855658054351807], "name" : "POSITION"}, {"bufferView" : 1, "byteOffset" : 12, "componentType" : 5126, "count" : 432, "type" : "VEC3", "max" : [0.9995790123939514, 0.9995790123939514, 1.0000044107437134], "min" : [-0.9995790123939514, -0.9995790123939514, -1.0000044107437134], "name" : "NORMAL"}, {"bufferView" : 1, "byteOffset" : 24, "componentType" : 5126, "count" : 432, "type" : "VEC2", "max" : [1, 1], "min" : [0, 0], "name" : "TEXCOORD_0"}, {"bufferView" : 0, "byteOffset" : 864, "componentType" : 5123, "count" : 4116, "type" : "SCALAR", "max" : [3439], "min" : [0]}, {"bufferView" : 2, "byteOffset" : 0, "componentType" : 5126, "count" : 3440, "type" : "VEC3", "max" : [0.9857229590415955, 0.813811719417572, 1.2614498245966388E-07], "min" : [-1.007086992263794, -0.8147861361503601, -0.01968512311577797], "name" : "POSITION"}, {"bufferView" : 2, "byteOffset" : 12, "componentType" : 5126, "count" : 3440, "type" : "VEC3", "max" : [0.9991256594657898, 0.9999468326568604, 1.0000044107437134], "min" : [-0.9999833106994629, -0.9999762177467346, -1.0000044107437134], "name" : "NORMAL"}, {"bufferView" : 2, "byteOffset" : 24, "componentType" : 5126, "count" : 3440, "type" : "VEC2", "max" : [2.222005605697632, 1], "min" : [0, -0.7734750509262085], "name" : "TEXCOORD_0"}, {"bufferView" : 0, "byteOffset" : 9096, "componentType" : 5123, "count" : 3696, "type" : "SCALAR", "max" : [3111], "min" : [0]}, {"bufferView" : 3, "byteOffset" : 0, "componentType" : 5126, "count" : 3112, "type" : "VEC3", "max" : [0.6223662495613098, 1.368668794631958, 1.6794696477973048E-07], "min" : [-0.6119979619979858, -1.367231011390686, -0.01968512497842312], "name" : "POSITION"}, {"bufferView" : 3, "byteOffset" : 12, "componentType" : 5126, "count" : 3112, "type" : "VEC3", "max" : [0.9999862313270569, 0.9998472332954407, 1.0000044107437134], "min" : [-0.9999613761901855, -1.0000038146972656, -1.0000044107437134], "name" : "NORMAL"}, {"bufferView" : 3, "byteOffset" : 24, "componentType" : 5126, "count" : 3112, "type" : "VEC2", "max" : [2.334642171859741, 1], "min" : [0, -2.2204580307006836], "name" : "TEXCOORD_0"}], "asset" : {"generator" : "Aspose.3D 23.4.0", "version" : "2.0"}, "buffers" : [{"uri" : "data:application/octet-stream;base64,", "byteLength" : 280312}], "bufferViews" : [{"buffer" : 0, "byteOffset" : 0, "byteLength" : 16488, "target" : 34963}, {"buffer" : 0, "byteOffset" : 16492, "byteLength" : 13824, "byteStride" : 32, "target" : 34962}, {"buffer" : 0, "byteOffset" : 30320, "byteLength" : 131712, "byteStride" : 32, "target" : 34962}, {"buffer" : 0, "byteOffset" : 162036, "byteLength" : 118272, "byteStride" : 32, "target" : 34962}], "materials" : [{"name" : "0.010", "pbrMetallicRoughness" : {"baseColorFactor" : [0.5, 0.5, 0.5, 1], "metallicFactor" : 0, "roughnessFactor" : 0}, "emissiveFactor" : [0, 0, 0], "alphaMode" : "OPAQUE", "doubleSided" : true}, {"name" : "0.010", "pbrMetallicRoughness" : {"baseColorFactor" : [0.5, 0.5, 0.5, 1], "metallicFactor" : 0, "roughnessFactor" : 0}, "emissiveFactor" : [0, 0, 0], "alphaMode" : "OPAQUE", "doubleSided" : true}, {"name" : "0.010", "pbrMetallicRoughness" : {"baseColorFactor" : [0.5, 0.5, 0.5, 1], "metallicFactor" : 0, "roughnessFactor" : 0}, "emissiveFactor" : [0, 0, 0], "alphaMode" : "OPAQUE", "doubleSided" : true}], "meshes" : [{"primitives" : [{"attributes" : {"POSITION" : 1, "NORMAL" : 2, "TEXCOORD_0" : 3}, "indices" : 0, "material" : 0, "mode" : 4}]}, {"primitives" : [{"attributes" : {"POSITION" : 5, "NORMAL" : 6, "TEXCOORD_0" : 7}, "indices" : 4, "material" : 1, "mode" : 4}]}, {"primitives" : [{"attributes" : {"POSITION" : 9, "NORMAL" : 10, "TEXCOORD_0" : 11}, "indices" : 8, "material" : 2, "mode" : 4}]}], "nodes" : [{"matrix" : [0.009999999776482582, 0, 0, 0, 0, -1.3435885348189617E-09, 0.009999999434197101, 0, 0, -0.009999999434197101, -1.3435885348189617E-09, 0, 0, 0.21884477138519287, 0, 1], "mesh" : 0, "name" : "Cylinder"}, {"matrix" : [-0.1024813437433976, -0.009892833483905078, -0.04778784163834022, 0, 0.008965954921516481, -0.11307564610174915, 0.0041808843367935325, 0, 0.04797037313074106, 8.358886199851252E-09, -0.10287278550821052, 0, -0.008112017065286636, 0.3616443872451782, -0.0028056830633431673, 1], "mesh" : 1, "name" : "Shape004"}, {"matrix" : [0.08168123838429862, -2.875607252439879E-09, 0.038088575563621246, 0, 2.875607252439879E-09, -0.09012526616424137, -1.297102932271367E-08, 0, 0.038088575563621246, 1.297102932271367E-08, -0.08168123436068521, 0, -0.011483447626233101, 0.3510374128818512, 0.004886516369879246, 1], "mesh" : 2, "name" : "Shape1"}], "scene" : 0, "scenes" : [{"nodes" : [0, 1, 2]}]}