{"accessors" : [{"bufferView" : 0, "byteOffset" : 0, "componentType" : 5123, "count" : 1860, "type" : "SCALAR", "max" : [1810], "min" : [0]}, {"bufferView" : 1, "byteOffset" : 0, "componentType" : 5126, "count" : 1811, "type" : "VEC3", "max" : [0.3440750539302826, 0.344075083732605, 4.037787704191942E-08], "min" : [-0.3440750539302826, -0.3440749943256378, -0.4127757251262665], "name" : "POSITION"}, {"bufferView" : 1, "byteOffset" : 12, "componentType" : 5126, "count" : 1811, "type" : "VEC3", "max" : [0.9997897744178772, 0.9997897744178772, 1.0000044107437134], "min" : [-0.9997897744178772, -0.9997897744178772, -1.0000044107437134], "name" : "NORMAL"}, {"bufferView" : 1, "byteOffset" : 24, "componentType" : 5126, "count" : 1811, "type" : "VEC2", "max" : [1.1155937910079956, 0.75003981590271], "min" : [1.9556660291186745E-08, 0.127158522605896], "name" : "TEXCOORD_0"}, {"bufferView" : 0, "byteOffset" : 3720, "componentType" : 5123, "count" : 49596, "type" : "SCALAR", "max" : [41555], "min" : [0]}, {"bufferView" : 2, "byteOffset" : 0, "componentType" : 5126, "count" : 41556, "type" : "VEC3", "max" : [0.17720089852809906, 0.17709916830062866, 0.019603269174695015], "min" : [-0.17713384330272675, -0.1771852970123291, -1.5759027004241943], "name" : "POSITION"}, {"bufferView" : 2, "byteOffset" : 12, "componentType" : 5126, "count" : 41556, "type" : "VEC3", "max" : [0.9994199872016907, 0.9997562766075134, 0.9964386820793152], "min" : [-0.9994221329689026, -0.9997566342353821, -0.99643874168396], "name" : "NORMAL"}, {"bufferView" : 2, "byteOffset" : 24, "componentType" : 5126, "count" : 41556, "type" : "VEC2", "max" : [1.0252294540405273, 0.7856957912445068], "min" : [0.00020220069563947618, 0.21421706676483154], "name" : "TEXCOORD_0"}, {"bufferView" : 0, "byteOffset" : 102912, "componentType" : 5123, "count" : 10824, "type" : "SCALAR", "max" : [8843], "min" : [0]}, {"bufferView" : 3, "byteOffset" : 0, "componentType" : 5126, "count" : 8844, "type" : "VEC3", "max" : [3.623351573944092, 5.3494415283203125, 0.07328400760889053], "min" : [-3.6085708141326904, -3.4351189136505127, 0.03391266241669655], "name" : "POSITION"}, {"bufferView" : 3, "byteOffset" : 12, "componentType" : 5126, "count" : 8844, "type" : "VEC3", "max" : [1.0000042915344238, 0.9999985098838806, 1.0000044107437134], "min" : [-1.0000042915344238, -0.9999643564224243, -1.0000044107437134], "name" : "NORMAL"}, {"bufferView" : 3, "byteOffset" : 24, "componentType" : 5126, "count" : 8844, "type" : "VEC2", "max" : [1.2678722143173218, 0.8021535873413086], "min" : [0.003689153352752328, 0.19784319400787354], "name" : "TEXCOORD_0"}, {"bufferView" : 0, "byteOffset" : 124560, "componentType" : 5123, "count" : 3420, "type" : "SCALAR", "max" : [2994], "min" : [0]}, {"bufferView" : 4, "byteOffset" : 0, "componentType" : 5126, "count" : 2995, "type" : "VEC3", "max" : [3.621429681777954, 3.3677592277526855, 5.000025566914701E-07], "min" : [-3.6085708141326904, -3.435122489929199, -0.866142213344574], "name" : "POSITION"}, {"bufferView" : 4, "byteOffset" : 12, "componentType" : 5126, "count" : 2995, "type" : "VEC3", "max" : [0.9999533295631409, 0.9997363090515137, 1.0000044107437134], "min" : [-0.9996272921562195, -0.9999553561210632, -1.0000044107437134], "name" : "NORMAL"}, {"bufferView" : 4, "byteOffset" : 24, "componentType" : 5126, "count" : 2995, "type" : "VEC2", "max" : [1.3268407583236694, 0.7605535984039307], "min" : [0.0008326070383191109, 0.2355470061302185], "name" : "TEXCOORD_0"}, {"bufferView" : 0, "byteOffset" : 131400, "componentType" : 5123, "count" : 2796, "type" : "SCALAR", "max" : [2330], "min" : [0]}, {"bufferView" : 5, "byteOffset" : 0, "componentType" : 5126, "count" : 2331, "type" : "VEC3", "max" : [3.5447309017181396, 3.2913124561309814, 5.386111752159195E-07], "min" : [-3.531874895095825, -3.3584225177764893, -0.039370521903038025], "name" : "POSITION"}, {"bufferView" : 5, "byteOffset" : 12, "componentType" : 5126, "count" : 2331, "type" : "VEC3", "max" : [0.9999752044677734, 1.0000038146972656, 1.0000044107437134], "min" : [-0.9999997615814209, -0.9999536871910095, -1.0000044107437134], "name" : "NORMAL"}, {"bufferView" : 5, "byteOffset" : 24, "componentType" : 5126, "count" : 2331, "type" : "VEC2", "max" : [39.346656799316406, 1], "min" : [0, -38.346656799316406], "name" : "TEXCOORD_0"}], "asset" : {"generator" : "Aspose.3D 23.4.0", "version" : "2.0"}, "buffers" : [{"uri" : "data:application/octet-stream;base64,", "byteLength" : 2328888}], "bufferViews" : [{"buffer" : 0, "byteOffset" : 0, "byteLength" : 136992, "target" : 34963}, {"buffer" : 0, "byteOffset" : 136996, "byteLength" : 59520, "byteStride" : 32, "target" : 34962}, {"buffer" : 0, "byteOffset" : 196520, "byteLength" : 1587072, "byteStride" : 32, "target" : 34962}, {"buffer" : 0, "byteOffset" : 1783596, "byteLength" : 346368, "byteStride" : 32, "target" : 34962}, {"buffer" : 0, "byteOffset" : 2129968, "byteLength" : 109440, "byteStride" : 32, "target" : 34962}, {"buffer" : 0, "byteOffset" : 2239412, "byteLength" : 89472, "byteStride" : 32, "target" : 34962}], "materials" : [{"name" : "0.011", "pbrMetallicRoughness" : {"baseColorFactor" : [0.5, 0.5, 0.5, 1], "metallicFactor" : 0, "roughnessFactor" : 0}, "emissiveFactor" : [0, 0, 0], "alphaMode" : "OPAQUE", "doubleSided" : true}, {"name" : "0.011", "pbrMetallicRoughness" : {"baseColorFactor" : [0.5, 0.5, 0.5, 1], "metallicFactor" : 0, "roughnessFactor" : 0}, "emissiveFactor" : [0, 0, 0], "alphaMode" : "OPAQUE", "doubleSided" : true}, {"name" : "0.011", "pbrMetallicRoughness" : {"baseColorFactor" : [0.5, 0.5, 0.5, 1], "metallicFactor" : 0, "roughnessFactor" : 0}, "emissiveFactor" : [0, 0, 0], "alphaMode" : "OPAQUE", "doubleSided" : true}, {"name" : "0.011", "pbrMetallicRoughness" : {"baseColorFactor" : [0.5, 0.5, 0.5, 1], "metallicFactor" : 0, "roughnessFactor" : 0}, "emissiveFactor" : [0, 0, 0], "alphaMode" : "OPAQUE", "doubleSided" : true}, {"name" : "0.011", "pbrMetallicRoughness" : {"baseColorFactor" : [0.5, 0.5, 0.5, 1], "metallicFactor" : 0, "roughnessFactor" : 0}, "emissiveFactor" : [0, 0, 0], "alphaMode" : "OPAQUE", "doubleSided" : true}], "meshes" : [{"primitives" : [{"attributes" : {"POSITION" : 1, "NORMAL" : 2, "TEXCOORD_0" : 3}, "indices" : 0, "material" : 0, "mode" : 4}]}, {"primitives" : [{"attributes" : {"POSITION" : 5, "NORMAL" : 6, "TEXCOORD_0" : 7}, "indices" : 4, "material" : 1, "mode" : 4}]}, {"primitives" : [{"attributes" : {"POSITION" : 9, "NORMAL" : 10, "TEXCOORD_0" : 11}, "indices" : 8, "material" : 2, "mode" : 4}]}, {"primitives" : [{"attributes" : {"POSITION" : 13, "NORMAL" : 14, "TEXCOORD_0" : 15}, "indices" : 12, "material" : 3, "mode" : 4}]}, {"primitives" : [{"attributes" : {"POSITION" : 17, "NORMAL" : 18, "TEXCOORD_0" : 19}, "indices" : 16, "material" : 4, "mode" : 4}]}], "nodes" : [{"matrix" : [1, 0, 0, 0, 0, -1.3435885648505064E-07, 0.9999999657714511, 0, 0, -0.9999999657714511, -1.3435885648505064E-07, 0, 0.0169677734375, -1.1460572481155396, -0.3648920953273773, 1], "mesh" : 0, "name" : "Circle003"}, {"matrix" : [-0.9999999315429307, 9.920952520677543E-10, -9.920950848130123E-10, 0, -9.920952520677543E-10, -1.3435885648505064E-07, 0.9999999657714511, 0, 9.920950848130123E-10, 0.9999999657714511, 2.028159258316009E-07, 0, 0.0162506103515625, 0.7599945664405823, -0.36360692977905273, 1], "mesh" : 1, "name" : "Helix001"}, {"matrix" : [0.39294055104255676, 0, 0, 0, 0, -5.2795035096271685E-08, 0.39294047798812914, 0, 0, -0.3929405375927719, -5.27950431046836E-08, 0, -0.0032806098461151123, 0.8041840195655823, -0.37610670924186707, 1], "mesh" : 2, "name" : "Shape003"}, {"matrix" : [0.39294055104255676, 0, 0, 0, 0, -5.2795035096271685E-08, 0.39294047798812914, 0, 0, -0.3929405375927719, -5.27950431046836E-08, 0, -0.0017547607421875, 0.7908936142921448, -0.37610673904418945, 1], "mesh" : 3, "name" : "Shape007"}, {"matrix" : [0.39294055104255676, 0, 0, 0, 0, -5.2795035096271685E-08, 0.39294047798812914, 0, 0, -0.3929405375927719, -5.27950431046836E-08, 0, -0.0024109482765197754, 1.1305999755859375, -0.37610673904418945, 1], "mesh" : 4, "name" : "Shape008"}, {"children" : [0, 1, 2, 3, 4], "matrix" : [0.007071067247695757, 2.5576994172679203E-10, -0.007071068441031311, 0, 0.007071068441031241, -2.6388841987937035E-09, 0.00707106816774635, 0, -1.0345421710099718E-09, -0.010000000696533158, -2.3163061706095125E-09, 0, 0, 0, 0, 1], "name" : "WOBLER_ZE_"}], "scene" : 0, "scenes" : [{"nodes" : [5]}]}